<?xml version="1.0" encoding="utf-8" ?><svg xmlns="http://www.w3.org/2000/svg" xmlns:xlink="http://www.w3.org/1999/xlink" width="1024" height="1024" viewBox="0 0 1024 1024"><path fill="#F8A0C0" d="M0 0L374.084 0L1024 0L1024 935.676L1024 1024L897.03 1024L861.234 1024L713.412 1024L699.818 1024L634.358 1024L623.552 1024L530.516 1024L517.648 1024L305.305 1024L273.584 1024L258.389 1024L249.647 1024L0 1024L0 1020.75L0 373.273L0 0Z"/><path fill="#EF4983" d="M0 0L374.084 0C372.942 7.21993 375.928 9.62121 375.334 14.3189C374.29 22.5907 375.382 26.6412 376.69 35.008C376.924 36.502 374.891 36.4992 374.293 38.8009L374.788 39.2719L376.567 37.7775L377.204 38.2034C378.201 43.46 377.147 47.8314 378.552 54.2408C377.723 55.5496 377.003 56.5737 376.409 58.0165C377.47 58.9196 377.064 58.6114 378.506 59.0521L378.821 60.0262C378.31 60.6558 377.874 61.2505 377.467 61.9546C378.577 66.3425 378.716 69.1607 380.917 73.1495C378.652 79.0591 381.628 100.414 382.237 108.088C382.736 114.386 381.561 140.317 385.157 143.61L385.93 145.518L385.661 146.093L384.224 145.34C382.085 146.408 365.68 170.45 365.301 173.679C364.484 180.618 359.75 181.459 358.13 185.476C358.739 186.224 358.371 185.957 359.211 186.309C352.302 196.97 350.79 193.442 351.243 207.876C350.22 209.76 347.877 212.316 347.901 214.088C348.38 215.231 348.84 216.381 349.28 217.538C347.285 220.767 344.304 221.638 344.709 225.224L345.725 226.513C344.062 232.197 337.895 237.889 343.742 243.462L342.696 249.63L341.858 249.997C341.394 249.575 340.956 249.176 340.503 248.74C340.57 249.973 341.027 250.383 341.725 251.433C341.266 255.955 338.697 260.402 338.56 265.16C338.457 268.737 340.084 271.987 339.821 275.503L338.479 276.133C338.371 279.055 339.82 280.62 339.879 283.349C339.916 285.061 338.653 289.155 338.776 290.83C339.123 295.488 340.526 300.508 340.543 305.188C340.562 310.182 339.195 315.218 339.879 320.322C340.188 322.627 340.283 322.788 341.961 324.455L341.651 325.072C338.48 331.498 344.415 332.804 342.031 338.922C341.94 339.154 343.548 344.537 343.654 345.208C344.727 349.655 347.411 361.311 346.936 365.311L347.729 366.786C350.193 370.636 348.035 376.394 348.568 380.292C351.647 402.793 346.007 432.568 337.12 453.443C325.294 481.218 314.665 507.367 316.371 538.285C316.687 544.013 314.081 547.133 319.576 550.487C320.802 554.76 316.917 555.84 325.059 560.372C331.142 563.758 339.11 563.003 345.71 564.412C348.077 564.917 354.09 567.337 356.667 568.326C357.646 567.083 361.609 562.835 361.625 561.69C361.78 550.976 361.776 540.561 363.841 529.979C364.288 527.688 364.11 524.764 365.001 522.608C368.833 522.539 370.781 537.705 372.13 540.952C374.24 546.034 379.024 561.413 382.188 565.013C385.994 569.344 411.039 568.232 416.416 569.001C415.459 573.212 392.19 604.424 387.937 607.811C393.525 609.951 398.525 607.52 400.238 613.19L401.242 613.379C402.838 618.166 405.792 622.57 407.614 627.258C410.887 635.681 414.632 643.789 418.317 652.033C427.647 672.543 435.878 693.536 442.973 714.922L442.034 716.114C443.52 719.151 446.743 723.493 447.69 725.843C449.315 729.876 450.541 735.454 452.065 739.845L466.802 783.208C468.106 786.939 472.855 796.653 473.383 799.31C472.742 800.499 472.685 800.468 472.44 801.791C473.511 803.39 476.235 804.931 476.086 806.237C475.118 814.756 480.595 822.65 483.225 830.507C483.973 832.74 484.131 835.9 484.763 838.234C487.278 844.269 489.831 850.382 491.897 856.599C493.824 862.398 495.093 868.363 497.017 874.164C497.837 876.635 498.043 879.569 498.787 882.03C499.857 885.569 501.71 889.111 502.771 892.692C504.535 899.371 506.109 906.141 507.631 912.891C508.977 918.863 510.629 925.39 511.437 931.444C511.789 934.087 514.068 936.48 514.53 938.712C515.373 942.789 515.329 947.899 515.73 951.985C516.038 955.126 518.982 954.924 517.568 958.76C517.735 961.083 519.554 965.753 520.236 967.89C521.529 971.94 521.924 978.375 523.413 981.921C526.065 988.238 525.321 989.711 525.958 995.81C526.754 1003.43 528.531 1011.68 529.678 1019.31C530.026 1021.03 530.111 1022.36 530.516 1024L517.648 1024L305.305 1024L273.584 1024L258.389 1024L249.647 1024L0 1024L0 1020.75L0 373.273L0 0Z"/><path fill="#F8A0C0" d="M0 0L374.084 0C372.942 7.21993 375.928 9.62121 375.334 14.3189C374.29 22.5907 375.382 26.6412 376.69 35.008C376.924 36.502 374.891 36.4992 374.293 38.8009L374.788 39.2719L376.567 37.7775L377.204 38.2034C378.201 43.46 377.147 47.8314 378.552 54.2408C377.723 55.5496 377.003 56.5737 376.409 58.0165C377.47 58.9196 377.064 58.6114 378.506 59.0521L378.821 60.0262C378.31 60.6558 377.874 61.2505 377.467 61.9546C378.577 66.3425 378.716 69.1607 380.917 73.1495C378.652 79.0591 381.628 100.414 382.237 108.088C382.736 114.386 381.561 140.317 385.157 143.61L385.93 145.518L385.661 146.093L384.224 145.34C382.085 146.408 365.68 170.45 365.301 173.679C364.484 180.618 359.75 181.459 358.13 185.476C358.739 186.224 358.371 185.957 359.211 186.309C352.302 196.97 350.79 193.442 351.243 207.876C350.22 209.76 347.877 212.316 347.901 214.088C348.38 215.231 348.84 216.381 349.28 217.538C347.285 220.767 344.304 221.638 344.709 225.224L345.725 226.513C344.062 232.197 337.895 237.889 343.742 243.462L342.696 249.63L341.858 249.997C341.394 249.575 340.956 249.176 340.503 248.74C340.57 249.973 341.027 250.383 341.725 251.433C341.266 255.955 338.697 260.402 338.56 265.16C338.457 268.737 340.084 271.987 339.821 275.503L338.479 276.133C338.371 279.055 339.82 280.62 339.879 283.349C339.916 285.061 338.653 289.155 338.776 290.83C339.123 295.488 340.526 300.508 340.543 305.188C340.562 310.182 339.195 315.218 339.879 320.322C340.188 322.627 340.283 322.788 341.961 324.455L341.651 325.072C338.48 331.498 344.415 332.804 342.031 338.922C341.94 339.154 343.548 344.537 343.654 345.208C344.727 349.655 347.411 361.311 346.936 365.311L347.729 366.786C346.518 367.908 345.88 368.788 344.279 368.985L342.446 368.5C340.315 365.602 338.679 362.378 334.47 363.603L333.646 364.511C333.822 365.975 333.541 365.315 334.709 366.461C335.829 366.152 336.737 365.866 337.837 365.492L338.298 366.266C337.617 367.685 337.341 368.909 336.884 369.918C333.906 368.713 334.971 369.348 332.699 366.274C330.347 366.258 331.442 368.007 328.737 368.222C326.928 365.897 328.898 366.001 327.507 363.2C321.949 362.987 323.576 369.361 317.67 365.89C318.12 365.394 318.445 365.009 318.866 364.495C317.739 363.345 315.659 362.148 314.013 362.162C312.216 363.258 312.062 364.098 311.14 365.989L310.727 366.847C308.716 366.7 309.466 367.109 308.211 365.994C308.362 365.023 308.457 364.551 308.737 363.628L308.986 362.814L308.307 362.106C306.801 361.996 306.42 361.818 305.052 362.435C303.467 364.312 302.757 365.677 300.233 365.812C299.995 364.611 300.06 364.654 300.348 363.442L302.097 362.417L301.875 361.904C295.758 360.001 297.428 364.334 294.577 365.981C288.688 366.85 286.448 361.265 284.344 360.382C284.621 362.667 285.1 365.089 282.483 365.826C280.743 365.066 280.877 364.337 279.878 362.121C277.643 361.701 279.666 362.909 276.789 364.021L275.653 363.424L276.76 362.53C276.116 361.094 275.587 363.168 273.523 361.691L273.989 360.513L273.638 359.833C272.044 359.235 271.679 358.982 269.954 359.132L269.637 359.862L270.703 362.552L270.412 363.148C268.021 362.772 267.917 361.547 267.35 359.412L267.147 358.634L266.041 358.518C264.672 359.239 263.87 359.874 262.258 359.729L263.001 362.452L262.51 362.915C258.098 361.07 260.952 355.017 252.974 361.233C251.194 361.385 251.985 361.609 250.541 360.48C251.234 359.407 251.327 359.49 252.378 358.721L252.114 357.757C250.842 358.646 251.54 358.47 250.092 358.602L248.769 356.827L248.065 356.993C246.938 358.983 246.664 360.619 244.33 360.187L243.071 358.259L242.299 358.128C242.495 358.69 242.598 359.188 242.74 359.766L241.901 359.821L240.516 358.297C237.558 358.594 238.208 357.053 235.865 357.757L235.378 358.747L236.836 359.236L236.903 359.686L234.754 359.747C233.488 359.182 231.789 357.206 230.748 356.139C229.53 357.198 227.094 359.743 225.508 359.06L226.433 357.308L225.946 356.674L223.961 356.759C222.151 358.602 222.967 358.846 220.492 359.539L219.726 359.095C218.999 357.121 219.056 356.028 216.975 355.578L216.431 355.986C216.74 357.06 217.044 357.94 217.419 358.994L216.561 359.671C214.799 359.273 215.231 359.257 213.7 357.831C211.088 357.305 214.092 358.352 211.779 359.515C209.29 358.164 208.007 353.972 205.64 354.996C205.926 357.309 208.862 359.049 207.963 361.182L206.919 361.376C206.254 360.545 205.596 359.709 204.942 358.869L204.155 358.806L203.284 360.273C202.524 360.134 202.902 360.296 202.209 359.667C201.99 358.18 202.007 357.909 201.439 356.481C200.186 356.08 195.999 358.182 194.197 358.865C193.259 357.938 192.992 357.584 191.741 357.162C189.735 356.332 188.138 355.36 186.089 355.705C184.4 356.589 184.185 357.113 183.081 358.637C182.178 355.35 181.796 358.172 181.81 355.972C181.029 356.837 181.925 359.479 179.972 359.734C178.335 359.947 178.341 359.7 176.865 360.638C176.437 358.747 176.273 357.65 174.806 356.298C170.995 355.2 169.976 359.924 166.617 359.024C163.803 358.269 164.521 356.379 160.95 356.205L160.257 356.821C160.506 357.925 160.7 358.853 160.886 359.969L160.405 360.403C159.106 360.268 158.926 360.287 157.709 359.867C156.435 360.248 154.808 360.921 153.652 360.587C148.375 359.95 147.857 355.168 143.897 358.81C144.124 359.831 144.208 359.966 144.117 361.005L143.114 360.816C142.372 359.669 141.705 358.674 140.916 357.561C138.021 357.05 137.421 358.423 135.561 360.552C133.04 359.609 131.412 359.034 129.018 357.72C126.174 359.36 127.36 362.95 124.39 361.821C122.134 360.963 120.869 358.847 118.251 358.465C117.025 359.368 117.462 358.963 116.69 360.412L116.228 360.455L115.694 359.083L114.767 359.056L113.639 360.235L112.892 359.834C107.524 356.98 106.84 360.433 103.726 360.9C101.418 361.247 102.037 357.746 98.8706 362.964L97.9476 363.127C96.8196 360.77 99.5901 362.896 97.4877 360.578C93.1573 359.833 89.308 362.803 87.9319 361.499L87.7289 360.583C85.7403 361.203 85.8592 363.087 83.7676 363.538C82.7616 362.6 83.056 362.963 82.3961 361.786C79.586 362.176 79.6256 365.728 77.2309 363.92L76.9948 363.098C77.9799 362.075 78.461 362.098 79.843 361.697C74.9769 360.825 73.2833 364.973 69.4445 364.326C68.6823 364.198 66.61 362.736 65.6872 362.218C65.529 362.913 65.3523 363.603 65.1571 364.288C62.482 364.668 63.6705 362.821 60.9946 363.21L59.821 364.845C58.5592 364.639 58.1397 364.31 57.0063 363.714C50.6435 364.217 45.3891 366.361 39.8179 365.469C34.7972 364.665 35.3896 369.833 27.2984 366.637C23.5129 367.973 23.4253 369.252 20.1383 367.172C19.5162 367.998 19.282 368.388 18.7676 369.289L17.5139 369.809C16.452 369.264 16.4106 369.221 15.4991 368.443C13.6292 368.528 12.5757 369.475 10.9661 370.507C7.69326 369.645 12.3071 369.69 7.63656 368.688L6.96291 369.153L7.42871 370.745C3.39031 370.53 3.01185 370.762 0 373.273L0 0Z"/><path fill="#F4619C" d="M153.652 360.587C153.471 359.066 153.213 359.177 152.195 357.762C153.78 356.581 156.906 356.535 158.357 358.029L157.709 359.867C156.435 360.248 154.808 360.921 153.652 360.587Z"/><path fill="#788FC0" d="M322.757 615.202C325.192 615.18 327.709 614.398 330.053 614.384C348.528 614.278 369.689 607.717 387.937 607.811C393.525 609.951 398.525 607.52 400.238 613.19L401.242 613.379C402.838 618.166 405.792 622.57 407.614 627.258C410.887 635.681 414.632 643.789 418.317 652.033C427.647 672.543 435.878 693.536 442.973 714.922L442.034 716.114C443.52 719.151 446.743 723.493 447.69 725.843C449.315 729.876 450.541 735.454 452.065 739.845L466.802 783.208C468.106 786.939 472.855 796.653 473.383 799.31C472.742 800.499 472.685 800.468 472.44 801.791C473.511 803.39 476.235 804.931 476.086 806.237C475.118 814.756 480.595 822.65 483.225 830.507C483.973 832.74 484.131 835.9 484.763 838.234C487.278 844.269 489.831 850.382 491.897 856.599C493.824 862.398 495.093 868.363 497.017 874.164C497.837 876.635 498.043 879.569 498.787 882.03C499.857 885.569 501.71 889.111 502.771 892.692C504.535 899.371 506.109 906.141 507.631 912.891C508.977 918.863 510.629 925.39 511.437 931.444C511.789 934.087 514.068 936.48 514.53 938.712C515.373 942.789 515.329 947.899 515.73 951.985C516.038 955.126 518.982 954.924 517.568 958.76C517.735 961.083 519.554 965.753 520.236 967.89C521.529 971.94 521.924 978.375 523.413 981.921C526.065 988.238 525.321 989.711 525.958 995.81C526.754 1003.43 528.531 1011.68 529.678 1019.31C530.026 1021.03 530.111 1022.36 530.516 1024L517.648 1024L305.305 1024L273.584 1024C272.716 1016.12 274.039 1004.08 275.237 996.143C275.161 996.644 276.814 995.532 277.031 995.286C275.575 994.985 275.676 995.018 274.544 994.045C273.496 991.464 275.213 974.933 275.607 971.234C275.41 970.954 274.449 969.47 274.479 969.25C275.559 961.532 275.713 954.362 275.834 946.619C275.968 938.12 276.975 929.456 277.275 920.927C277.401 917.338 279.199 912.396 278.307 908.985C277.166 905.927 278.27 904.355 279.555 901.232C278.817 899.014 278.538 898.531 278.521 896.255L279.944 895.766C279.68 892.189 277.848 889.401 278.669 884.977C279.398 881.041 279.856 874.878 280.366 870.867C280.617 868.896 278.68 866.514 279.603 862.008L280.894 861.901L280.864 861.111L279.779 860.948C279.496 859.855 280.392 857.716 280.789 856.412C280.196 855.584 280.225 855.663 279.347 855.227C279.139 853.015 278.566 848.464 278.813 846.278C278.868 845.796 280.085 845.703 280.312 843.894C275.89 840.352 279.811 836.122 278.829 835.509C275.227 833.259 278.547 828.771 278.084 824.532C278.04 823.081 275.105 818.318 275.24 817.173C276.142 809.529 274.221 802.134 273.4 794.515C272.859 789.5 273.26 783.701 271.329 779.186C270.532 777.322 269.891 776.29 270.155 774.181C271.177 773.069 271.256 773.322 271.62 772.066L270.198 771.661C269.263 768.664 267.459 759.996 266.636 756.459C266.503 755.891 267.236 756.778 267.726 755.218C265.423 752.746 266.397 756.14 265.183 751.339C261.649 737.357 255.888 723.992 250.18 710.79C249.086 708.163 249.239 705.734 247.717 703.245C242.462 694.653 238.638 684.761 231.659 677.399C229.844 675.484 228.105 673.307 226.546 671.135C226.557 669.169 226.76 667.9 225.761 666.446L224.54 667.506L223.661 667.362C219.157 663.174 218.556 660.3 215.437 655.264C217.113 653.76 218.674 653.99 220.946 653.884C249.809 635.962 282.233 624.552 315.959 620.449C315.794 618.989 315.542 618.054 316.039 616.677C317.894 615.476 319.594 617.017 322.757 615.202Z"/><path fill="#1A4F99" d="M220.946 653.884C222.616 654.233 226.145 655.488 226.992 656.928L226.205 658.299L226.867 658.757C229.226 658.018 229.542 658.14 231.442 660.021C231.256 662.354 230.873 661.502 232.06 662.898C239.964 663.765 256.389 691.687 260.105 699.344C266.044 711.585 271.441 725.857 276.113 738.733C277.437 742.382 278.792 746.824 278.936 750.698C279.08 753.629 282.834 756.502 283.28 759.488C283.894 766.312 284.856 773.295 286.394 779.962C286.737 780.296 287.079 780.629 287.422 780.962C287.546 787.871 289.304 794.361 290.234 801.145C292.112 815.684 293.55 830.277 294.546 844.902C294.644 846.493 295.525 853.154 295.347 853.974C294.366 858.488 293.598 857.07 295.483 862.265C295.982 863.642 293.361 870.182 295.029 872.281C295.486 873.322 296.034 876.249 295.837 877.541L294.036 880.34C294.448 881.86 294.335 881.412 295.252 882.802C295.215 885.808 295.069 888.752 294.966 891.737C294.451 906.62 295.672 921.651 293.132 936.413C292.611 939.444 292.252 943.668 292.837 946.706L293.48 947.563L294.338 947.435C294.561 946.124 294.999 944.522 295.192 942.924C295.338 941.716 299.281 935.85 297.274 935.298C297.341 935.317 300.828 931.986 300.762 931.206C300.765 930.925 300.055 927.237 300.024 926.501C299.908 923.756 301.888 918.54 303.412 916.398C301.701 910.878 305.775 905.768 305.713 902.988C305.544 895.503 309.718 892.227 310.798 886.758L309.544 886.177C309.069 884.061 311.669 878.77 312.052 876.612C312.544 873.841 310.615 876.586 311.462 873.722C312.52 873.616 312.037 873.603 312.909 873.702C312.682 872.488 312.765 872.918 311.936 871.815C312.119 870.072 312.342 867.971 312.954 866.204C312.956 866.199 314.16 864.98 314.429 864.703C315.008 864.109 313.546 862.942 313.576 862.783C314.945 855.382 315.481 847.706 316.256 840.22C316.43 838.537 316.399 838.605 317.022 837.26C317.796 835.585 318.292 834.129 318.618 832.483C319.438 828.355 318.695 796.538 319.493 795.367L320.714 795.67L320.86 794.618C319.742 794.137 320.273 794.351 319.264 793.968L319.275 792.78L320.776 791.531C320.493 790.719 320.469 790.92 319.704 790.242C319.615 782.075 319.73 774.208 319.987 766.035C320.107 762.183 319.493 758.895 320.009 754.914L320.248 758.295C320.368 756.547 320.479 751.478 321.218 750.3C323.388 750.671 322.869 750.586 324.252 752.138C328.256 756.559 324.176 759.743 327.833 763.27C328.413 764.179 326.26 768.134 326.585 768.521C329.811 772.345 328.377 775.078 328.99 779.431C330.688 791.471 331.16 803.166 330.809 815.288C330.773 816.532 328.874 815.177 330.1 817.107L331.182 817.676C331.221 821.367 329.849 824.805 330.192 828.249C330.201 829.488 331.997 832.222 331.085 833.081C330.771 833.377 330.25 834.639 330.355 835.005C331.445 838.825 331.631 860.707 328.926 862.325L327.091 862.222C327.818 863.642 329.06 863.715 329.124 864.025C329.642 866.529 329.33 872.286 329.312 874.761L328.238 874.313C327.549 882.865 327.078 891.928 326.729 900.556C326.687 901.605 325.691 902.877 324.957 903.661C324.941 905.136 325.229 908.888 325.038 909.767C323.714 915.843 321.917 921.928 320.641 928.018C320.462 929.564 321.224 931.268 321.575 932.747C321.66 933.106 319.39 936.45 319.39 936.431C319.458 945.176 319.136 952.961 314.768 960.719C316.897 965.572 315.575 963.285 315.229 967.537C314.658 974.556 312.663 980.476 310.629 987.151C310.158 988.74 312.497 992.976 311.235 994.724C310.785 995.922 308.819 999.511 308.737 1000.56C308.189 1007.63 307.814 1014.66 305.179 1021.4L304.95 1021.34C304.636 1022.7 304.763 1022.66 305.305 1024L273.584 1024C272.716 1016.12 274.039 1004.08 275.237 996.143C275.161 996.644 276.814 995.532 277.031 995.286C275.575 994.985 275.676 995.018 274.544 994.045C273.496 991.464 275.213 974.933 275.607 971.234C275.41 970.954 274.449 969.47 274.479 969.25C275.559 961.532 275.713 954.362 275.834 946.619C275.968 938.12 276.975 929.456 277.275 920.927C277.401 917.338 279.199 912.396 278.307 908.985C277.166 905.927 278.27 904.355 279.555 901.232C278.817 899.014 278.538 898.531 278.521 896.255L279.944 895.766C279.68 892.189 277.848 889.401 278.669 884.977C279.398 881.041 279.856 874.878 280.366 870.867C280.617 868.896 278.68 866.514 279.603 862.008L280.894 861.901L280.864 861.111L279.779 860.948C279.496 859.855 280.392 857.716 280.789 856.412C280.196 855.584 280.225 855.663 279.347 855.227C279.139 853.015 278.566 848.464 278.813 846.278C278.868 845.796 280.085 845.703 280.312 843.894C275.89 840.352 279.811 836.122 278.829 835.509C275.227 833.259 278.547 828.771 278.084 824.532C278.04 823.081 275.105 818.318 275.24 817.173C276.142 809.529 274.221 802.134 273.4 794.515C272.859 789.5 273.26 783.701 271.329 779.186C270.532 777.322 269.891 776.29 270.155 774.181C271.177 773.069 271.256 773.322 271.62 772.066L270.198 771.661C269.263 768.664 267.459 759.996 266.636 756.459C266.503 755.891 267.236 756.778 267.726 755.218C265.423 752.746 266.397 756.14 265.183 751.339C261.649 737.357 255.888 723.992 250.18 710.79C249.086 708.163 249.239 705.734 247.717 703.245C242.462 694.653 238.638 684.761 231.659 677.399C229.844 675.484 228.105 673.307 226.546 671.135C226.557 669.169 226.76 667.9 225.761 666.446L224.54 667.506L223.661 667.362C219.157 663.174 218.556 660.3 215.437 655.264C217.113 653.76 218.674 653.99 220.946 653.884Z"/><path fill="#1D4F9D" d="M292.446 948.565C292.807 948.831 293.167 949.246 293.493 949.58C293.022 952.052 292.896 952.69 293.036 955.201L293.071 955.74C291.273 954.394 292.211 950.662 292.446 948.565Z"/><path fill="#1A4F99" d="M315.959 620.449C315.794 618.989 315.542 618.054 316.039 616.677C317.894 615.476 319.594 617.017 322.757 615.202C325.021 620.119 330.317 623.673 330.716 630.302C329.804 630.763 330.252 630.611 329.388 630.806C331.755 638.028 337.27 650.318 337.168 657.765C337.059 665.746 342.261 667.781 341.925 675.971C341.808 678.822 344.496 680.108 344.912 685.664C345.224 689.821 346.863 699.649 348.298 703.345L349.651 703.483C349.85 715.093 351.356 718.582 354.486 729.461C357.453 739.773 360.223 751.337 361.695 761.927C361.767 762.605 360.321 763.333 361.225 764.281C366.286 769.584 364.717 779.032 365.372 785.739C365.429 786.315 368.6 789.019 367.583 790.48C365.794 794.508 368.882 797.297 369.249 800.826C369.524 803.465 368.206 806.07 368.842 809.325C369.546 809.91 369.861 810.185 370.435 810.914L370.364 812.778C374 812.446 372.586 808.091 380.662 808.38C380.972 807.23 380.858 807.771 380.501 806.402L381.128 806.074L382.907 807.043C386.349 805.47 390.936 803.468 394.643 802.243C395.072 802.101 395.195 800.381 396.446 800.195C396.26 800.762 396.106 801.255 396.062 801.853C399.718 801.598 400.014 800.727 402.83 798.724C403.543 798.217 412.741 797.56 413.519 797.906C413.858 798.367 414.449 798.841 414.242 799.384C408.912 813.38 402.672 826.551 395.843 839.885C394.537 842.436 392.472 848.903 390.525 850.423L389.162 850.311L388.751 850.877C389.765 854.806 382.056 869.039 378.768 871.349C377.014 871.164 376.735 870.848 375.284 869.9C372.45 865.814 375.493 860.266 373.653 855.343C371.746 850.241 374.479 843.778 376.766 839.297C378.081 836.392 385.478 824.119 383.854 821.956C380.128 823.035 378.711 827.962 375.256 828.36C371.495 828.794 362.85 833.909 360.444 831.867C358.591 830.295 354.858 818.22 354.504 816.016L354.991 815.809L356.322 816.46L356.272 815.554C350.008 812.26 356.781 809.608 351.688 806.686C350.771 804.202 352.512 800.577 352.463 800.529C347.473 795.647 348.996 788.299 346.966 781.989C346.209 779.633 345.933 775.743 345.17 773.298C344.285 768.829 342.646 766.392 344.174 761.844C344.273 761.551 342.272 755.221 342.081 754.343C341.209 751.328 338.268 738.065 338.873 735.819C339.825 735.201 339.746 735.224 340.878 735.155C339.603 733.663 338.295 733.979 337.808 732.089C336.433 726.755 340.125 722.39 334.901 718.75C334.937 717.138 334.653 712.361 334.557 711.171C334.843 708.139 331.242 709.952 332.45 707.242C334.221 703.268 330.832 699.759 330.689 696.198C330.216 684.458 325.205 674.451 323.767 662.796C323.329 659.252 321.607 658.572 323.575 655.473C321.952 649.643 320.697 649.47 319.934 642.565C319.257 636.431 315.435 626.641 315.959 620.449Z"/><path fill="#1A4F99" d="M400.238 613.19L401.242 613.379C402.838 618.166 405.792 622.57 407.614 627.258C410.887 635.681 414.632 643.789 418.317 652.033C427.647 672.543 435.878 693.536 442.973 714.922L442.034 716.114C443.52 719.151 446.743 723.493 447.69 725.843C449.315 729.876 450.541 735.454 452.065 739.845L466.802 783.208C468.106 786.939 472.855 796.653 473.383 799.31C472.742 800.499 472.685 800.468 472.44 801.791C473.511 803.39 476.235 804.931 476.086 806.237C475.118 814.756 480.595 822.65 483.225 830.507C483.973 832.74 484.131 835.9 484.763 838.234C487.278 844.269 489.831 850.382 491.897 856.599C493.824 862.398 495.093 868.363 497.017 874.164C497.837 876.635 498.043 879.569 498.787 882.03C499.857 885.569 501.71 889.111 502.771 892.692C504.535 899.371 506.109 906.141 507.631 912.891C508.977 918.863 510.629 925.39 511.437 931.444C511.789 934.087 514.068 936.48 514.53 938.712C515.373 942.789 515.329 947.899 515.73 951.985C516.038 955.126 518.982 954.924 517.568 958.76C517.735 961.083 519.554 965.753 520.236 967.89C521.529 971.94 521.924 978.375 523.413 981.921C526.065 988.238 525.321 989.711 525.958 995.81C526.754 1003.43 528.531 1011.68 529.678 1019.31C530.026 1021.03 530.111 1022.36 530.516 1024L517.648 1024C517.223 1009.56 511.635 988.194 509.032 973.521C508.619 971.19 509.313 971.318 509.497 969.109L507.882 968.687C507.082 966.178 506.005 963.167 505.537 960.622C507.604 954.553 502.846 950.786 502.807 945.57C502.744 937.349 498.294 929.719 496.821 921.515C495.565 914.521 495.04 906.68 493.116 899.981C493.058 899.779 491.235 897.757 491.342 897.276C491.11 892.815 484.859 877.493 486.166 874.507C478.269 855.788 473.659 834.894 466.753 815.826C464.758 810.317 468.16 812.135 464.762 806.888C461.293 801.534 459.502 795.488 459.046 789.238C458.982 788.361 455.713 784.345 455.339 783.173C454.209 780.047 454.31 777.362 453.543 774.208C452.349 770.235 449.274 766.711 449.68 762.246C449.944 759.33 448.433 758.729 446.121 756.338C443.977 745.258 438.852 734.346 436.203 723.296C435.539 720.526 430.253 720.125 433.283 715.105C430.929 709.908 428.547 704.633 426.295 699.377C425.411 697.314 426.426 695.84 426.308 694.874C426.108 693.221 422.769 688.685 421.92 687.046C421.089 685.442 418.719 680.171 419.085 678.803L421.042 678.817L420.859 677.896L419.072 677.24C417.766 675.279 416.158 669.386 415.439 666.962L414.004 666.607C412.959 665.057 413.054 660.779 412.658 658.345C411.395 658.435 411.472 658.481 410.334 657.947C409.906 657.11 409.581 656.562 409.721 655.588C409.801 655.035 409.74 653.534 409.701 652.991C409.701 652.991 407.725 651.099 407.725 651.099C407.229 649.179 406.586 647.139 405.976 645.273C404.727 641.453 402.698 637.134 401.506 633.4C400.597 629.622 400.152 625.754 399.174 621.989C398.386 618.955 395.834 617.459 397.239 614.304L400.238 613.19Z"/><path fill="#788FC0" d="M215.437 655.264C218.556 660.3 219.157 663.174 223.661 667.362L224.54 667.506L225.761 666.446C226.76 667.9 226.557 669.169 226.546 671.135C228.105 673.307 229.844 675.484 231.659 677.399C238.638 684.761 242.462 694.653 247.717 703.245C249.239 705.734 249.086 708.163 250.18 710.79C255.888 723.992 261.649 737.357 265.183 751.339C266.397 756.14 265.423 752.746 267.726 755.218C267.236 756.778 266.503 755.891 266.636 756.459C267.459 759.996 269.263 768.664 270.198 771.661L271.62 772.066C271.256 773.322 271.177 773.069 270.155 774.181C269.891 776.29 270.532 777.322 271.329 779.186C273.26 783.701 272.859 789.5 273.4 794.515C274.221 802.134 276.142 809.529 275.24 817.173C275.105 818.318 278.04 823.081 278.084 824.532C278.547 828.771 275.227 833.259 278.829 835.509C279.811 836.122 275.89 840.352 280.312 843.894C280.085 845.703 278.868 845.796 278.813 846.278C278.566 848.464 279.139 853.015 279.347 855.227C280.225 855.663 280.196 855.584 280.789 856.412C280.392 857.716 279.496 859.855 279.779 860.948L280.864 861.111L280.894 861.901L279.603 862.008C278.68 866.514 280.617 868.896 280.366 870.867C279.856 874.878 279.398 881.041 278.669 884.977C277.848 889.401 279.68 892.189 279.944 895.766L278.521 896.255C278.538 898.531 278.817 899.014 279.555 901.232C278.27 904.355 277.166 905.927 278.307 908.985C279.199 912.396 277.401 917.338 277.275 920.927C276.975 929.456 275.968 938.12 275.834 946.619C275.713 954.362 275.559 961.532 274.479 969.25C274.449 969.47 275.41 970.954 275.607 971.234C275.213 974.933 273.496 991.464 274.544 994.045C275.676 995.018 275.575 994.985 277.031 995.286C276.814 995.532 275.161 996.644 275.237 996.143C274.039 1004.08 272.716 1016.12 273.584 1024L258.389 1024L249.647 1024L0 1024L0 1020.75C5.85408 1015.52 12.6599 1001.59 17.2879 994.476C26.8264 979.813 35.4107 964.613 45.1406 950.04C48.8238 944.523 50.882 938.97 55.1525 933.343C54.8884 931.23 54.1706 926.938 54.3603 924.908C57.1278 895.303 64.7952 864.062 86.069 842.04C92.4031 835.483 99.4026 830.878 105.65 824.484C105.849 817.587 107.276 812.11 108.107 805.389C111.534 777.747 122.07 751.399 137.646 728.316C143.724 719.309 153.109 708.668 159.101 699.119C161.44 695.392 174.753 686.831 178.635 682.68C183.174 678.75 188.404 675.053 193.05 671.336C199.262 666.367 210.658 661.261 215.437 655.264Z"/><path fill="#1A4F99" d="M187.694 907.372C187.574 906.649 186.973 902.712 186.789 902.302C185.977 903.072 185.675 903.406 184.967 904.275C184.148 904.036 182.964 903.114 182.829 902.32C182.084 897.948 177.498 896.309 175.45 893.56C171.603 888.396 152.805 872.987 152.672 867.96L151.138 867.168C151.214 864.777 153.943 863.165 153.218 861.485C151.319 857.088 152.682 855.377 153.264 850.966C153.822 846.732 153.222 841.776 155.04 837.618C159.075 834.387 167.459 844.993 170.634 847.319L170.337 848.657C174.486 851.022 176.073 852.273 179.053 856.034C182.73 860.673 184.437 859.288 185.08 865.587C190.694 870.749 192.191 872.091 195.726 878.924C198.741 884.751 204.72 893.107 208.974 898.265C209.813 905.32 213.245 903.776 215.376 907.87L214.154 909.275C215.13 912.147 220.846 917.997 221.643 920.797C222.989 925.528 229.343 935.837 230.185 939.812L229.324 940.558L229.628 941.009L231.444 941.281C231.433 941.265 237.204 954.831 237.23 955.02C237.877 959.668 247.851 977.09 247.275 979.873L245.98 980.461L246.267 981.47C247.439 981.149 246.903 981.439 247.847 980.547C248.957 982.625 250.879 985.57 250.483 987.77C249.912 990.938 251.706 993.264 252.745 996.341C255.205 1003.62 259.611 1016.14 258.389 1024L249.647 1024C248.325 1021.32 246.194 1017.1 246.173 1014.1L246.911 1013.04C246.484 1012.49 246.267 1012.17 245.684 1011.72C243.059 1009.7 243.755 1001.81 242.27 1001.06L241.555 1001.39C239.905 999.558 239.206 996.096 240.071 993.74C235.779 985.939 232.783 977.363 228.555 969.804C222.439 958.872 216.907 946.684 209.268 936.868C208.181 935.472 208.57 931.498 206.739 930.31C200.458 922.598 194.046 914.99 187.694 907.372Z"/><path fill="#F4619C" d="M183.081 358.637C184.185 357.113 184.4 356.589 186.089 355.705C188.138 355.36 189.735 356.332 191.741 357.162C190.689 358.985 185.828 361.25 183.742 360.265C183.343 359.493 183.206 359.449 183.081 358.637Z"/><path fill="#94B7EA" d="M474.369 407.298C476.814 409.56 482.437 424.375 484.287 428.308C486.3 432.492 488.509 436.579 490.906 440.556C501.197 457.329 517.996 477.872 535.566 487.08C562.887 501.398 595.745 513.546 626.758 516.182C627.985 516.286 629.017 516.212 630.261 516.389L630.571 519.272L628.447 519.923C626.75 523.658 627.911 536.266 624.63 541.804C624.657 541.758 621.241 557.913 621.241 557.917C628.121 559.224 631.352 569.629 634.825 570.382C639.306 577.43 645.976 584.735 651.289 591.281C654.348 595.049 657.578 599.04 660.785 602.661C663.484 605.708 667.136 608.385 669.903 611.312C670.189 615.974 670.167 616.838 672.508 621.04C674.804 621.455 675.931 621.421 677.687 622.812C678.694 624.34 678.569 624.365 678.496 626.138L677.846 627.135C677.981 627.298 678.138 627.444 678.252 627.622C682.538 634.284 677.231 682.133 677.098 693.622C677.087 694.526 677.037 694.9 676.632 695.688L677.385 696.008C681.968 708.673 687.55 721.735 686.148 735.466C687.105 736.089 687.169 736.12 688.159 736.604C689.18 739.553 689.021 744.311 689.328 747.492C689.533 749.622 691.315 753.548 691.46 755.4C692.386 767.273 694.622 779.134 695.168 790.982C695.214 791.974 696.073 793.126 696.637 793.974C696.841 798.656 695.303 800.582 696.819 804.72C697.512 807.366 698.768 810.223 699.155 812.907C699.433 814.837 698.065 813.623 698.54 816.081C701.188 829.803 703.009 844.016 704.099 857.947C704.44 862.309 704.298 866.31 704.807 870.518C704.223 871.093 703.705 871.587 703.093 872.132C704.649 875.07 706.103 875.978 706.328 879.172C706.658 883.856 707.799 889.055 708.191 893.67C708.541 897.778 708.102 902.639 708.301 906.929C708.505 911.326 708.881 915.36 709.029 919.846C709.24 926.218 709.465 933.059 709.475 939.483C709.475 939.476 710.786 941.261 710.785 941.267C709.867 945.45 708.632 946.427 710.625 950.544C711.607 952.574 710.309 957.676 710.56 960.075C710.857 962.903 711.212 966.095 711.693 968.871C712.318 972.477 713.376 974.736 712.369 978.449C711.083 983.187 713.147 987.651 713.422 992.328C713.549 996.425 712.663 1002.47 712.917 1006.76C712.964 1007.56 713.576 1008.37 714.011 1009.01C713.669 1011.63 712.885 1014.91 712.652 1017.27C712.431 1019.5 713.893 1020.45 713.412 1024L699.818 1024L634.358 1024L623.552 1024L530.516 1024C530.111 1022.36 530.026 1021.03 529.678 1019.31C528.531 1011.68 526.754 1003.43 525.958 995.81C525.321 989.711 526.065 988.238 523.413 981.921C521.924 978.375 521.529 971.94 520.236 967.89C519.554 965.753 517.735 961.083 517.568 958.76C518.982 954.924 516.038 955.126 515.73 951.985C515.329 947.899 515.373 942.789 514.53 938.712C514.068 936.48 511.789 934.087 511.437 931.444C510.629 925.39 508.977 918.863 507.631 912.891C506.109 906.141 504.535 899.371 502.771 892.692C501.71 889.111 499.857 885.569 498.787 882.03C498.043 879.569 497.837 876.635 497.017 874.164C495.093 868.363 493.824 862.398 491.897 856.599C489.831 850.382 487.278 844.269 484.763 838.234C484.131 835.9 483.973 832.74 483.225 830.507C480.595 822.65 475.118 814.756 476.086 806.237C476.235 804.931 473.511 803.39 472.44 801.791C472.685 800.468 472.742 800.499 473.383 799.31C472.855 796.653 468.106 786.939 466.802 783.208L452.065 739.845C450.541 735.454 449.315 729.876 447.69 725.843C446.743 723.493 443.52 719.151 442.034 716.114L442.973 714.922C435.878 693.536 427.647 672.543 418.317 652.033C414.632 643.789 410.887 635.681 407.614 627.258C405.792 622.57 402.838 618.166 401.242 613.379L400.238 613.19C398.525 607.52 393.525 609.951 387.937 607.811C392.19 604.424 415.459 573.212 416.416 569.001C424.872 567.702 436.355 567.624 444.852 568.243C453.26 558.96 447.867 558.666 448.589 549.238C449.237 540.761 450.031 530.966 451.08 522.57C453.995 530.249 456.022 543.149 458.281 551.15C459.782 556.464 462.927 562.799 465.488 567.732C470.541 562.278 487.715 570.651 490.253 564.164L488.718 563.779L488.37 563.085C488.806 562.955 489.242 562.826 489.678 562.697C483.86 542.569 479.2 521.35 476.331 500.541C475.686 495.861 477.108 485.131 476.235 478.586L474.465 477.464C475.032 476.506 475.737 476.665 475.73 476.488C475.55 471.266 476.367 466.122 476.531 460.928C476.632 457.714 475.271 456.541 477.086 453.571C475.486 448.294 476.483 427.834 475.696 420.708C475.325 417.347 473.745 409.595 474.369 407.298Z"/><path fill="#94B7EA" d="M621.241 557.917C628.121 559.224 631.352 569.629 634.825 570.382C639.306 577.43 645.976 584.735 651.289 591.281C654.348 595.049 657.578 599.04 660.785 602.661C663.484 605.708 667.136 608.385 669.903 611.312C670.189 615.974 670.167 616.838 672.508 621.04C674.804 621.455 675.931 621.421 677.687 622.812C678.694 624.34 678.569 624.365 678.496 626.138L677.846 627.135C677.981 627.298 678.138 627.444 678.252 627.622C682.538 634.284 677.231 682.133 677.098 693.622C677.087 694.526 677.037 694.9 676.632 695.688L677.385 696.008C681.968 708.673 687.55 721.735 686.148 735.466C687.105 736.089 687.169 736.12 688.159 736.604C689.18 739.553 689.021 744.311 689.328 747.492C689.533 749.622 691.315 753.548 691.46 755.4C692.386 767.273 694.622 779.134 695.168 790.982C695.214 791.974 696.073 793.126 696.637 793.974C696.841 798.656 695.303 800.582 696.819 804.72C697.512 807.366 698.768 810.223 699.155 812.907C699.433 814.837 698.065 813.623 698.54 816.081C701.188 829.803 703.009 844.016 704.099 857.947C704.44 862.309 704.298 866.31 704.807 870.518C704.223 871.093 703.705 871.587 703.093 872.132C704.649 875.07 706.103 875.978 706.328 879.172C706.658 883.856 707.799 889.055 708.191 893.67C708.541 897.778 708.102 902.639 708.301 906.929C708.505 911.326 708.881 915.36 709.029 919.846C709.24 926.218 709.465 933.059 709.475 939.483C709.475 939.476 710.786 941.261 710.785 941.267C709.867 945.45 708.632 946.427 710.625 950.544C711.607 952.574 710.309 957.676 710.56 960.075C710.857 962.903 711.212 966.095 711.693 968.871C712.318 972.477 713.376 974.736 712.369 978.449C711.083 983.187 713.147 987.651 713.422 992.328C713.549 996.425 712.663 1002.47 712.917 1006.76C712.964 1007.56 713.576 1008.37 714.011 1009.01C713.669 1011.63 712.885 1014.91 712.652 1017.27C712.431 1019.5 713.893 1020.45 713.412 1024L699.818 1024L634.358 1024L623.552 1024C622.683 1022.11 621.995 1014.83 622.64 1013.1C621.68 1011.4 621.434 1011.66 621.714 1010.16L623.102 1009.34C618.836 1005.18 614.774 970.368 613.554 961.832L614.437 960.881C614.457 960.003 614.563 960.361 614.206 959.393C612.817 955.627 611.552 951.122 611.09 947.115C611.003 946.363 612.444 941.65 612.067 940.736C611.928 940.398 609.859 940.36 609.748 939.199C609.439 935.952 609.09 931.431 608.478 928.387C604.377 907.991 603.146 887.048 598.122 866.766C597.671 864.946 598.704 862.042 598.467 861.01C597.114 855.122 596.75 851.335 594.089 845.993C592.878 842.222 594.761 843.242 592.172 839.216C595.343 838.748 596.545 838.741 599.708 838.772C602.437 833.047 596.265 824.895 597.986 820.049C598.167 819.951 598.349 819.854 598.531 819.757L599.258 819.347C601.938 817.871 602.306 815.169 603.444 812.235C606.141 805.277 612.303 798.302 616.06 791.685C617.05 789.941 616.738 785.843 618.334 783.042C619.207 783.326 618.751 783.208 619.706 783.386C623.43 779.074 627.663 770.137 631.183 765.067C633.271 762.059 634.8 755.674 637.25 752.417C637.824 751.654 637.422 748.867 637.354 747.71L637.999 747.532L638.767 748.548C639.594 746.631 639.182 746.718 640.624 745.927C641.378 744.489 640.43 741.376 640.585 739.453L640.491 738.857C640.114 736.357 639.344 735.543 637.98 733.428C637.868 729.638 635.724 727.624 634.978 724.652C634.945 724.563 634.913 724.473 634.881 724.384C631.71 721.978 633.974 718.833 629.59 717.808C629.522 716.05 629.82 715.701 629.554 713.826C628.26 713.14 627.438 712.445 626.292 711.56L628.023 711.466L628.548 710.8C628.271 708.134 624.889 703.77 622.195 702.75L623.39 701.508C622.782 697.964 614.93 685.194 612.562 681.631L611.608 682.103L611.016 681.832C612.108 681.065 611.819 681.463 612.343 680.304C611.321 677.599 607.88 673.383 605.693 671.502L604.34 670.226L603.135 670.496C602.44 669.996 602.271 669.805 601.706 669.083C598.997 670.196 597.848 671.561 596.829 674.379C592.305 686.883 591.072 701.303 589.518 714.486C589.148 717.621 584.95 727.784 585.069 730L585.924 731.24C584.718 736.017 582.635 736.425 584.424 740.989C584.809 741.972 581.127 747.26 582.232 749.988L584.387 750.976L584.431 751.258C582.396 751.699 583.002 751.153 582.024 752.418L581.926 753.397C581.804 754.514 581.801 754.653 581.216 755.648C579.574 755.204 578.669 754.559 577.537 753.345C577.057 751.461 576.992 752.405 578.104 750.455L580.709 749.278C580.623 747.237 580.755 743.208 579.419 741.936C577.922 742.993 578.209 743.191 577.315 745.151C574.232 743.257 577.158 743.261 575.617 738.222C575.579 736.965 576.249 731.841 576.423 730.316C576.077 721.121 578.397 713.651 579.601 704.238C581.763 687.541 578.93 670.077 587.083 654.826C595.035 639.949 613.014 626.961 620.6 613.415C620.597 611.245 620.243 608.408 620.033 606.195C620.772 591.484 617.115 573.638 621.241 557.917Z"/><path fill="#1A4F99" d="M676.632 695.688L677.385 696.008C681.968 708.673 687.55 721.735 686.148 735.466C687.105 736.089 687.169 736.12 688.159 736.604C689.18 739.553 689.021 744.311 689.328 747.492C689.533 749.622 691.315 753.548 691.46 755.4C692.386 767.273 694.622 779.134 695.168 790.982C695.214 791.974 696.073 793.126 696.637 793.974C696.841 798.656 695.303 800.582 696.819 804.72C697.512 807.366 698.768 810.223 699.155 812.907C699.433 814.837 698.065 813.623 698.54 816.081C701.188 829.803 703.009 844.016 704.099 857.947C704.44 862.309 704.298 866.31 704.807 870.518C704.223 871.093 703.705 871.587 703.093 872.132C704.649 875.07 706.103 875.978 706.328 879.172C706.658 883.856 707.799 889.055 708.191 893.67C708.541 897.778 708.102 902.639 708.301 906.929C708.505 911.326 708.881 915.36 709.029 919.846C709.24 926.218 709.465 933.059 709.475 939.483C709.475 939.476 710.786 941.261 710.785 941.267C709.867 945.45 708.632 946.427 710.625 950.544C711.607 952.574 710.309 957.676 710.56 960.075C710.857 962.903 711.212 966.095 711.693 968.871C712.318 972.477 713.376 974.736 712.369 978.449C711.083 983.187 713.147 987.651 713.422 992.328C713.549 996.425 712.663 1002.47 712.917 1006.76C712.964 1007.56 713.576 1008.37 714.011 1009.01C713.669 1011.63 712.885 1014.91 712.652 1017.27C712.431 1019.5 713.893 1020.45 713.412 1024L699.818 1024C701.975 1018.96 701.127 1003.79 699.867 998.321L701.438 998.073C702.219 996.803 702.17 997.438 701.932 996.174L700.209 995.847C700.096 992.695 700.831 989.945 701.303 986.795C701.303 986.795 700.124 984.992 700.124 984.992C700.332 980.958 700.897 975.48 701.25 971.617L700.351 970.776C700.14 968.901 700.501 967.138 700.412 965.149C700.121 958.643 698.61 953.901 699.613 947.35L699.927 945.211C698.947 944.999 699.423 945.163 698.502 944.708C698.312 939.581 697.935 934.432 697.789 929.347L699.081 928.281L698.993 927.591C697.998 927.094 697.942 927.019 697.081 926.297C696.449 923.448 697.832 923.375 697.896 920.834C697.816 920.018 696.809 917.727 696.847 916.933C697.287 907.79 696.904 898.843 695.229 889.818C695.295 890.172 697.043 886.659 697.118 886.466C696.983 886.305 694.765 883.751 694.829 883.918C694.036 881.309 697.058 876.813 695.208 874.625C692.433 871.343 693.821 868.978 695.589 866.144L695.942 865.587C691.261 857.756 692.681 855.713 691.89 846.669C691.475 841.918 690.619 836.854 689.928 832.095C688.595 822.906 689.124 810.733 686.422 802.126L686.201 801.441C686.689 800.671 687.268 800.004 687.871 799.322L687.767 799.189C686.715 799.039 686.732 799.045 685.763 798.609L685.393 797.471C687.619 790.459 682.556 789.027 684.908 782.348C685.362 781.058 683.522 777.613 683.314 775.346C684.517 774.923 684.086 775.293 684.698 774.351C683.445 773.446 683.398 772.657 682.941 771.157L683.074 771.285L678.869 743.427C678.081 738.385 677.099 733.277 676.122 728.251C675.887 727.039 674.902 726.561 673.887 725.918L674.748 725.17C674.912 723.922 675.129 722.524 675.177 721.278L675.229 719.52L673.334 717.485C676.696 709.505 674.637 703.249 676.632 695.688Z"/><path fill="#F8A0C0" d="M672.508 621.04C674.804 621.455 675.931 621.421 677.687 622.812C678.694 624.34 678.569 624.365 678.496 626.138L677.846 627.135C677.981 627.298 678.138 627.444 678.252 627.622C682.538 634.284 677.231 682.133 677.098 693.622C677.087 694.526 677.037 694.9 676.632 695.688C674.637 703.249 676.696 709.505 673.334 717.485L675.229 719.52L675.177 721.278C675.129 722.524 674.912 723.922 674.748 725.17L673.887 725.918C670.596 729.605 668.062 759.404 666.438 765.632C663.766 775.881 662.272 787.425 660.103 797.786C659.037 802.876 655.528 808.214 653.221 812.897C650.963 807.154 646.913 802.204 645.571 795.858C641.885 778.239 651.671 760.065 653.706 742.907C655.19 730.405 652.416 733.927 659.805 722.18C659.424 718.716 658.692 713.022 659.377 709.7C660.446 704.075 663.469 698.148 663.693 692.367C664.303 676.63 665.291 661.329 667.581 645.744C668.303 640.83 668.307 633.888 668.536 628.746C670.092 627.168 671.493 623.291 672.508 621.04Z"/><path fill="#1A4F99" d="M592.172 839.216C595.343 838.748 596.545 838.741 599.708 838.772C601.137 840.871 601.911 840.953 600.301 843.191C604.487 850.012 602.212 853.071 603.22 859.941C604.414 868.078 608.069 868.092 604.898 876.695L606.337 876.67C609.536 880.553 606.914 881.282 608.066 884.492C609.974 889.807 612.231 893.003 611.503 898.998C611.536 898.725 613.18 901.894 613.356 902.421C612.286 903.176 612.842 902.869 611.696 903.358L612.105 903.717C614.698 906.044 616.185 914.16 616.388 917.666C616.731 923.574 615.227 922.581 617.991 928.04L617.619 928.783L616.791 928.783C616.824 931.535 619.158 933.643 618.653 935.409L616.566 936.747L616.437 937.468C617.327 937.839 619.175 938.253 619.228 939.257C619.38 942.099 620.954 941.911 619.484 944.655C620.683 945.002 620.082 944.884 621.287 945.019C621.118 946.423 620.51 947.033 619.691 948.19L619.688 948.829L621.132 949.417C622.371 953.186 623.748 958.508 623.825 962.469C622.95 963.129 623.419 962.866 622.421 963.265L622.54 963.815L623.815 964.191C624.254 966.618 624.153 968.671 624.642 971.067C626.005 977.742 627.67 984.274 629.361 990.821C629.447 991.154 628.351 993.065 628.206 993.324C629.965 995.765 630.351 995.226 629.32 998.027L629.602 998.712C629.946 999.559 629.838 999.213 630.008 999.892L627.354 999.031C628.71 1001.23 634.268 1003.79 631.926 1008.88C631.18 1009.01 630.979 1009.1 630.229 1009.06L629.957 1009.46L628.169 1010.78L628.188 1011.06L628.573 1010.91C626.958 1012.33 624.849 1013.37 622.64 1013.1C621.68 1011.4 621.434 1011.66 621.714 1010.16L623.102 1009.34C618.836 1005.18 614.774 970.368 613.554 961.832L614.437 960.881C614.457 960.003 614.563 960.361 614.206 959.393C612.817 955.627 611.552 951.122 611.09 947.115C611.003 946.363 612.444 941.65 612.067 940.736C611.928 940.398 609.859 940.36 609.748 939.199C609.439 935.952 609.09 931.431 608.478 928.387C604.377 907.991 603.146 887.048 598.122 866.766C597.671 864.946 598.704 862.042 598.467 861.01C597.114 855.122 596.75 851.335 594.089 845.993C592.878 842.222 594.761 843.242 592.172 839.216Z"/><path fill="#1D4F9D" d="M592.172 839.216C595.343 838.748 596.545 838.741 599.708 838.772C601.137 840.871 601.911 840.953 600.301 843.191C599.464 841.748 600.048 842.246 598.481 841.652C596.342 842.235 597.117 841.814 595.573 843.657C595.27 845.423 595.641 844.612 594.089 845.993C592.878 842.222 594.761 843.242 592.172 839.216Z"/><path fill="#1D4F9D" d="M629.957 1009.46C632.195 1010.7 631.651 1010.04 632.922 1012.05C633.036 1014.82 631.866 1015.63 632.5 1017.35L633.789 1017.98C633.628 1020.07 632.02 1018.58 633.03 1020.27C633.967 1021.83 634.217 1022.26 634.358 1024L623.552 1024C622.683 1022.11 621.995 1014.83 622.64 1013.1C624.849 1013.37 626.958 1012.33 628.573 1010.91L628.188 1011.06L628.169 1010.78L629.957 1009.46Z"/><path fill="#F8A0C0" d="M576.423 730.316C580.636 733.992 583.18 744.294 580.709 749.278C580.623 747.237 580.755 743.208 579.419 741.936C577.922 742.993 578.209 743.191 577.315 745.151C574.232 743.257 577.158 743.261 575.617 738.222C575.579 736.965 576.249 731.841 576.423 730.316Z"/><path fill="#9EAF41" d="M474.369 407.298C476.814 409.56 482.437 424.375 484.287 428.308C486.3 432.492 488.509 436.579 490.906 440.556C501.197 457.329 517.996 477.872 535.566 487.08C562.887 501.398 595.745 513.546 626.758 516.182C627.985 516.286 629.017 516.212 630.261 516.389L630.571 519.272L628.447 519.923C626.75 523.658 627.911 536.266 624.63 541.804C624.657 541.758 621.241 557.913 621.241 557.917C617.115 573.638 620.772 591.484 620.033 606.195C620.243 608.408 620.597 611.245 620.6 613.415C613.014 626.961 595.035 639.949 587.083 654.826C578.93 670.077 581.763 687.541 579.601 704.238C578.397 713.651 576.077 721.121 576.423 730.316C576.249 731.841 575.579 736.965 575.617 738.222C574.169 743.863 572.212 751.351 573.19 757.188C573.398 758.429 574.576 763.004 573.884 763.592C573.167 763.165 571.899 762.351 571.198 762.024C567.695 756.018 564.676 750.795 561.809 744.451C559.378 739.071 557.214 732.368 554.278 727.407C554.517 725.096 555.291 723.108 556.007 720.891C546.716 695.44 528.24 666.306 512.597 644.386C506.429 635.743 496.482 624.506 491.765 614.879C483.942 598.917 473.385 583.329 465.488 567.732C470.541 562.278 487.715 570.651 490.253 564.164L488.718 563.779L488.37 563.085C488.806 562.955 489.242 562.826 489.678 562.697C483.86 542.569 479.2 521.35 476.331 500.541C475.686 495.861 477.108 485.131 476.235 478.586L474.465 477.464C475.032 476.506 475.737 476.665 475.73 476.488C475.55 471.266 476.367 466.122 476.531 460.928C476.632 457.714 475.271 456.541 477.086 453.571C475.486 448.294 476.483 427.834 475.696 420.708C475.325 417.347 473.745 409.595 474.369 407.298Z"/><path fill="#EF4983" d="M474.369 407.298C476.814 409.56 482.437 424.375 484.287 428.308C486.3 432.492 488.509 436.579 490.906 440.556C501.197 457.329 517.996 477.872 535.566 487.08C562.887 501.398 595.745 513.546 626.758 516.182C627.985 516.286 629.017 516.212 630.261 516.389L630.571 519.272L628.447 519.923C626.75 523.658 627.911 536.266 624.63 541.804C624.657 541.758 621.241 557.913 621.241 557.917C617.115 573.638 620.772 591.484 620.033 606.195C600.642 592.988 579.705 577.159 562.469 561.289C559.578 558.644 557.138 554.991 554.311 552.354C536.689 535.918 522.922 515.666 508.283 496.628C497.797 482.993 483.867 469.464 477.086 453.571C475.486 448.294 476.483 427.834 475.696 420.708C475.325 417.347 473.745 409.595 474.369 407.298Z"/><path fill="#1A4F99" d="M581.216 755.648C581.801 754.653 581.804 754.514 581.926 753.397L582.024 752.418C583.002 751.153 582.396 751.699 584.431 751.258L584.387 750.976L582.232 749.988C581.127 747.26 584.809 741.972 584.424 740.989C582.635 736.425 584.718 736.017 585.924 731.24L585.069 730C584.95 727.784 589.148 717.621 589.518 714.486C591.072 701.303 592.305 686.883 596.829 674.379C597.848 671.561 598.997 670.196 601.706 669.083C602.271 669.805 602.44 669.996 603.135 670.496L604.34 670.226L605.693 671.502C607.88 673.383 611.321 677.599 612.343 680.304C611.819 681.463 612.108 681.065 611.016 681.832L611.608 682.103L612.562 681.631C614.93 685.194 622.782 697.964 623.39 701.508L622.195 702.75C624.889 703.77 628.271 708.134 628.548 710.8L628.023 711.466L626.292 711.56C627.438 712.445 628.26 713.14 629.554 713.826C629.82 715.701 629.522 716.05 629.59 717.808C633.974 718.833 631.71 721.978 634.881 724.384C634.913 724.473 634.945 724.563 634.978 724.652C635.724 727.624 637.868 729.638 637.98 733.428C639.344 735.543 640.114 736.357 640.491 738.857L640.585 739.453C640.43 741.376 641.378 744.489 640.624 745.927C639.182 746.718 639.594 746.631 638.767 748.548L637.999 747.532L637.354 747.71C637.422 748.867 637.824 751.654 637.25 752.417C634.8 755.674 633.271 762.059 631.183 765.067C627.663 770.137 623.43 779.074 619.706 783.386C618.751 783.208 619.207 783.326 618.334 783.042C616.738 785.843 617.05 789.941 616.06 791.685C612.303 798.302 606.141 805.277 603.444 812.235C602.306 815.169 601.938 817.871 599.258 819.347L598.531 819.757C598.349 819.854 598.167 819.951 597.986 820.049C596.265 824.895 602.437 833.047 599.708 838.772C596.545 838.741 595.343 838.748 592.172 839.216L592.675 837.68C592.054 834.146 589.337 833.819 589.778 831.161L591.262 830.893L591.141 830.147C585.687 829.245 589.468 821.261 586.925 817.875L585.625 818.267C584.278 814.313 582.63 810.654 580.978 806.818C580.225 804.705 579.936 802.467 579.181 800.355C572.891 782.764 562.677 766.911 556.76 749.186C556.438 748.222 553.041 746.233 552.715 745.519C551.313 742.453 551.519 738.032 548.612 735.951C547.115 737.186 549.165 737.615 547.835 739.753C545.72 743.15 543.127 745.938 540.404 748.792C539.879 749.343 538.996 753.215 538.138 754.749C537.571 754.747 537.004 754.746 536.436 754.744C535.203 756.775 534.133 758.296 532.758 760.216C533.943 760.749 533.577 760.321 534.148 761.272C532.666 763.957 528.494 768.065 526.206 770.16C526.707 771.107 526.45 770.587 526.96 771.729C523.702 775.132 521.715 777.93 518.952 781.706L520.379 782.091L520.493 782.792L519.863 783.39L517.717 783.027L517.272 783.559L518.34 784.47C518.024 786.835 506.242 804.907 503.245 805.58C502.981 804.76 502.97 804.885 502.47 804.148L501.432 804.499C500.914 802.479 500.741 796.608 500.752 794.325C500.766 791.419 501.043 791.668 502.775 790.052C502.497 789.02 501.794 788.973 500.511 788.23C500.012 786.773 499.991 787.463 500.455 786.092L501.987 785.982L502.054 785.116C501.192 784.099 501.139 783.978 500.507 782.793C501.596 780.19 501.394 778.47 502.836 775.464C504.317 766.795 505.665 759.539 508.683 751.186C509.34 749.369 511.875 745.45 511.676 744.238C510.946 739.789 514.403 736.504 515.21 732.226C516.495 728.177 517.93 723.718 519.591 719.814C521.68 714.904 523.085 702.564 527.605 700.012C527.514 698.554 528.276 694.794 529.54 694.21C530.664 694.691 531.729 695.202 532.838 695.713C538.831 698.471 542.363 710.341 547.988 713.179C549.827 718.88 551.348 722.066 554.278 727.407C557.214 732.368 559.378 739.071 561.809 744.451C564.676 750.795 567.695 756.018 571.198 762.024C571.899 762.351 573.167 763.165 573.884 763.592C574.576 763.004 573.398 758.429 573.19 757.188C572.212 751.351 574.169 743.863 575.617 738.222C577.158 743.261 574.232 743.257 577.315 745.151C578.209 743.191 577.922 742.993 579.419 741.936C580.755 743.208 580.623 747.237 580.709 749.278L578.104 750.455C576.992 752.405 577.057 751.461 577.537 753.345C578.669 754.559 579.574 755.204 581.216 755.648Z"/><path fill="#FE6387" d="M575.617 738.222C577.158 743.261 574.232 743.257 577.315 745.151C578.209 743.191 577.922 742.993 579.419 741.936C580.755 743.208 580.623 747.237 580.709 749.278L578.104 750.455C576.992 752.405 577.057 751.461 577.537 753.345C578.669 754.559 579.574 755.204 581.216 755.648C581.472 758.362 580.912 760.68 578.791 762.495C579.088 765.677 579.116 766.406 577.038 768.946C577.349 770.961 577.831 771.617 576.246 773.288C575.618 772.808 572.632 764.629 571.198 762.024C571.899 762.351 573.167 763.165 573.884 763.592C574.576 763.004 573.398 758.429 573.19 757.188C572.212 751.351 574.169 743.863 575.617 738.222Z"/><path fill="#1D4F9D" d="M629.59 717.808C633.974 718.833 631.71 721.978 634.881 724.384C634.913 724.473 634.945 724.563 634.978 724.652C633.486 726.491 633.757 726.755 631.596 726.546C629.882 725.033 629.424 721.82 630.387 719.751L629.59 717.808Z"/><path fill="#788FC0" d="M640.585 739.453C638.73 738.151 636.397 737.157 636.469 734.799L637.98 733.428C639.344 735.543 640.114 736.357 640.491 738.857L640.585 739.453Z"/><path fill="#1D4F9D" d="M603.135 670.496L604.34 670.226L605.693 671.502L605.492 671.919C605.674 673.531 606.625 674.021 607.961 675.527L607.888 676.407L607.326 676.45C604.934 674.546 605.255 673.643 603.656 671.263L603.135 670.496Z"/><path fill="#F8A0C0" d="M486.013 812.204C488.738 800.588 493.077 790.017 497.243 778.837C498.18 776.321 499.001 774.515 501.757 774.34L502.836 775.464C501.394 778.47 501.596 780.19 500.507 782.793C501.139 783.978 501.192 784.099 502.054 785.116L501.987 785.982L500.455 786.092C499.991 787.463 500.012 786.773 500.511 788.23C501.794 788.973 502.497 789.02 502.775 790.052C501.043 791.668 500.766 791.419 500.752 794.325C500.741 796.608 500.914 802.479 501.432 804.499C501.082 805.626 501.182 807.911 500.894 808.346C496.795 814.531 494.704 824.706 490.638 830.349C488.466 823.912 489.158 819.724 486.013 812.204Z"/><path fill="#FE6387" d="M559.957 798.144C563.175 798.921 565.108 800.36 566.824 803.182C569.836 808.132 585.511 824.276 576.629 829.173C569.659 825.152 565.174 818.507 562.757 810.733C563.125 811.917 563.437 807.943 563.42 808.66C562.207 807.815 562.051 807.82 561.196 806.65L562.034 804.738C560.728 803.2 561.021 805.245 558.349 804.283C557.88 802.588 559.261 799.911 559.957 798.144Z"/><path fill="#FE6387" d="M576.361 891.671C576.967 891.684 581.047 891.863 581.287 892.015C585.531 894.697 586.28 900.567 589.811 903.766C591.239 905.059 592.999 906.467 593.303 908.178C592.637 910.829 592.369 911.506 593.223 914.114C593.624 915.99 594.201 917.359 593.44 919.033C590.596 921.03 586.987 917.031 585.297 914.867C579.115 907.195 576.723 901.346 576.361 891.671Z"/><path fill="#FE6387" d="M593.223 914.114C593.624 915.99 594.201 917.359 593.44 919.033C590.596 921.03 586.987 917.031 585.297 914.867C586.076 914.719 591.933 914.461 592.499 914.666L593.223 914.114Z"/><path fill="#FE6387" d="M592.859 998.927L592.589 998.452C591.747 996.939 591.45 996.634 591.391 994.88C592.236 993.447 592.175 993.304 593.674 992.501C600.285 991.669 610.158 1014.27 609.571 1017.41C608.127 1018.84 605.93 1019.3 603.938 1019.94C600.261 1016.46 599.09 1014.46 596.658 1010C594.498 1007.06 591.308 1002.43 592.859 998.927Z"/><path fill="#F4619C" d="M592.859 998.927L593.581 999.412C594.68 1000.13 595.073 1000.23 596.305 1000.66C596.3 1003.44 593.584 1001.94 597.919 1005.56C597.174 1008.36 595.557 1006.32 596.658 1010C594.498 1007.06 591.308 1002.43 592.859 998.927Z"/><path fill="#FE6387" d="M440.139 585.446C443.402 586.077 444.498 585.888 447.746 585.527C447.794 585.645 447.842 585.762 447.89 585.879C450.536 594.964 461.918 599.622 456.191 610.315C455.727 610.608 455.486 610.574 454.895 610.69C447.699 606.1 440.205 593.938 440.139 585.446Z"/><path fill="#FE6387" d="M479.496 710.972C478.331 709.383 478.552 708.757 479.605 707.385C482.856 706.114 485.536 707.577 487.476 710.174L488.108 711.588C491.748 715.678 498.136 726.816 493.079 731.374C486.591 732.984 482.623 720.289 481.097 715.463C480.956 713.106 480.826 713.019 479.496 710.972Z"/><path fill="#FE6387" d="M479.496 710.972C478.331 709.383 478.552 708.757 479.605 707.385C482.856 706.114 485.536 707.577 487.476 710.174L488.108 711.588C485.223 713.745 484.598 714.578 481.097 715.463C480.956 713.106 480.826 713.019 479.496 710.972Z"/><path fill="#F4619C" d="M487.476 710.174L488.108 711.588C485.223 713.745 484.598 714.578 481.097 715.463C480.956 713.106 480.826 713.019 479.496 710.972C481.129 711.225 481.574 711.88 482.951 712.83C484.919 712.778 485.64 711.64 487.476 710.174Z"/><path fill="#788FC0" d="M678.496 626.138C679.091 625.002 679.461 624.314 680.164 623.218C683.891 622.754 687.624 626.231 690.632 627.937C691.9 628.656 691.488 625.366 695.082 626.845C698.623 628.302 704.174 627.769 707.59 629.303C707.736 629.423 707.882 629.543 708.028 629.663C711.504 628.983 712.379 628.217 715.169 629.767C717.945 629.49 718.201 630.486 721.082 630.695C725.603 631.023 730.08 632.868 734.601 633.706L734.611 632.649C735.746 632.356 765.649 636.989 768.762 637.472C774.1 638.3 784.377 642.862 790.99 643.705C795.124 644.487 797.352 644.509 800.567 647.175L800.919 648.5C804.367 651.139 807.055 648.484 808.038 651.772C807.223 652.374 806.789 652.691 806.099 653.439C807.405 654.19 808.718 654.798 810.073 655.451L810.349 655.367L810.089 654.814C809.532 653.613 808.986 652.874 809.181 651.624C810.508 651.242 809.809 651.307 811.355 651.909C812.276 653.214 811.95 654.575 811.869 656.261L812.506 656.707L813.468 655.873C816.823 656.704 823.419 659.339 826.354 661.106L827.007 659.648C837.295 658.501 902.032 721.841 908.728 734.286C910.954 737.429 916.496 743.585 916.421 746.399C919.084 750.291 920.681 752.534 923.676 756.333C922.33 756.388 922.858 756.452 921.563 755.835C924.838 762.592 940.845 777.34 942.592 786.78C941.683 788.17 942.11 787.56 940.325 788.467C940.99 791.244 950.18 796.62 949.174 798.539L947.311 798.927C948.3 800.264 950.157 801.441 951.401 802.67C959.28 810.453 961.866 821.877 966.307 831.672C969.145 837.122 973.232 841.891 976.104 847.31C981.559 857.603 985.233 868.652 990.44 879.013C991.715 881.55 993.705 884.632 995.448 886.894C999.621 892.306 1003.61 897.843 1007.5 903.459C1008.81 905.347 1008.47 909.248 1008.7 911.477C1008.71 911.701 1010.77 912.308 1011.19 912.441C1014.13 915.484 1015.16 921.763 1017.26 925.222C1019.47 928.836 1021.85 931.955 1024 935.676L1024 1024L897.03 1024L861.234 1024L713.412 1024C713.893 1020.45 712.431 1019.5 712.652 1017.27C712.885 1014.91 713.669 1011.63 714.011 1009.01C713.576 1008.37 712.964 1007.56 712.917 1006.76C712.663 1002.47 713.549 996.425 713.422 992.328C713.147 987.651 711.083 983.187 712.369 978.449C713.376 974.736 712.318 972.477 711.693 968.871C711.212 966.095 710.857 962.903 710.56 960.075C710.309 957.676 711.607 952.574 710.625 950.544C708.632 946.427 709.867 945.45 710.785 941.267C710.786 941.261 709.475 939.476 709.475 939.483C709.465 933.059 709.24 926.218 709.029 919.846C708.881 915.36 708.505 911.326 708.301 906.929C708.102 902.639 708.541 897.778 708.191 893.67C707.799 889.055 706.658 883.856 706.328 879.172C706.103 875.978 704.649 875.07 703.093 872.132C703.705 871.587 704.223 871.093 704.807 870.518C704.298 866.31 704.44 862.309 704.099 857.947C703.009 844.016 701.188 829.803 698.54 816.081C698.065 813.623 699.433 814.837 699.155 812.907C698.768 810.223 697.512 807.366 696.819 804.72C695.303 800.582 696.841 798.656 696.637 793.974C696.073 793.126 695.214 791.974 695.168 790.982C694.622 779.134 692.386 767.273 691.46 755.4C691.315 753.548 689.533 749.622 689.328 747.492C689.021 744.311 689.18 739.553 688.159 736.604C687.169 736.12 687.105 736.089 686.148 735.466C687.55 721.735 681.968 708.673 677.385 696.008L676.632 695.688C677.037 694.9 677.087 694.526 677.098 693.622C677.231 682.133 682.538 634.284 678.252 627.622C678.138 627.444 677.981 627.298 677.846 627.135L678.496 626.138Z"/><path fill="#1A4F99" d="M786.367 664.403C802.012 673.171 815.325 706.847 824.661 721.694C825.253 722.634 825.292 722.565 825.459 723.696C824.794 724.809 823.875 724.994 822.642 725.508L822.84 726.371C825.531 725.765 823.005 724.712 825.629 725.808C828.591 730.015 831.353 742.122 833.931 744.517C834.715 751.681 836.646 752.738 838.571 759.086C841.718 769.466 843.695 780.284 847.489 790.52C848.058 792.054 847.055 795.628 847.766 797.311C848.844 801.167 851.468 801.278 849.041 804.747C853.593 816.588 854.093 822.958 856.356 835.454C858.75 848.675 861.796 861.575 863.11 875.049C863.51 878.169 863.333 878.166 862.134 881.079C862.616 882.624 863.361 883.27 864.418 884.489C865.25 887.399 863.632 890.029 864.248 892.07C866.405 899.207 866.356 904.984 866.913 912.244C868.038 925.212 868.508 938.228 868.322 951.244C868.233 957.291 866.439 963.557 866.423 969.44C866.408 975.394 869.619 982.186 870.755 987.934C871.521 991.558 868.731 991.007 871.487 995.305L871.901 995.305L871.818 994.036C872.958 994.417 872.699 994.569 873.724 995.807C874.77 992.549 874.017 991.925 874.555 989.657C875.528 985.559 877.318 980.215 878.915 976.277C879.89 973.874 878.068 971.097 879.205 968.959L880.341 968.506C880.319 965.308 882.278 958.671 881.897 957.12L881.255 956.736C882.066 954.547 882.29 954.581 884.634 953.756L884.776 952.702L883.355 952.802C883.004 950.975 890 911.823 890.359 906.101C890.607 902.151 890.509 896.827 890.693 892.664C890.801 890.214 892.408 887.28 892.601 885.039C892.766 883.13 891.34 879.821 891.828 877.797C892.518 874.937 893.403 871.827 894.446 869.095C893.093 862.338 895.935 854.967 897.672 847.818L898.35 847.185C899.649 848.253 905.888 879.558 905.88 884.001C905.877 885.514 907.655 900.201 907.088 901.429C905.634 904.579 905.905 902.345 907.376 907.688C908.074 910.223 907.723 915.988 907.695 918.878C907.249 947.102 905.107 975.275 901.281 1003.24C900.512 1008.64 899.134 1019.09 897.03 1024L861.234 1024C859.468 1019.73 857.926 1010.85 857.711 1006.19C854.549 1003.31 853.887 988.893 852.43 983.993C852.07 982.78 851.246 977.179 851.292 975.782L852.673 975.199C851.823 973.911 852.12 974.34 850.773 973.381L845.508 952.312C844.725 949.189 843.368 944.812 842.905 941.829L842.987 941.944L842.656 941.186L842.811 941.977C840.675 936.084 839.658 929.315 837.842 923.248C835.431 915.187 833.052 907.1 830.674 899.027C829.603 895.393 828.965 891.542 827.846 887.979C824.955 878.772 821.162 869.802 818.073 860.657C817.035 857.158 816.693 855.598 816.42 851.699C816.42 851.699 814.71 850.064 814.71 850.063C814.146 847.887 813.497 845.192 812.849 843.085C811.352 838.221 809.401 833.598 807.675 828.823C807.121 827.291 806.988 824.759 806.596 823.789C805.313 820.616 803.012 817.292 801.738 814.161C800.372 810.804 799.359 806.868 798.013 803.529C795.414 797.08 792.706 790.71 790.244 784.196C787.062 775.78 782.896 767.152 780.339 758.566C783.737 762.252 790.016 768.841 792.629 772.984C809.885 800.332 820.953 830.713 831.771 860.989C832.096 861.9 833.423 864.467 834.356 865.537C835.933 867.249 838.032 877.616 838.718 878.315C842.102 881.759 840.456 883.496 842.023 886.378C845.943 893.584 849.978 918.037 854.154 922.829C854.083 918.903 852.208 917.13 854.777 913.876L854.561 913.195L853.15 913.299C853.275 911.799 853.152 912.697 853.913 911.494C853.915 911.49 852.719 909.714 852.718 909.704C852.318 904.556 851.98 899.421 851.851 894.292C851.834 893.65 850.24 889.076 850.037 887.139C849.418 881.548 849.479 875.8 848.988 870.21C848.677 866.672 847.54 862.835 847.214 859.25C845.972 845.598 843.84 832.103 841.07 818.681C840.261 814.76 837.639 810.735 837.466 806.456C837.169 803 835.494 797.333 834.779 793.745C834.76 793.645 835.778 792.024 835.956 791.755C834.066 788.347 831.567 786.951 832.585 782.191C831.774 779.906 830.174 777.381 829.721 775.271C827.196 763.529 823.054 752.457 819.795 740.941C818.233 735.422 815.1 733.534 815.745 727.636C812.188 722.486 810.436 716.901 808.262 711.075C806.494 706.338 802.539 700.122 801.546 695.434C802.132 694.445 802.31 694.313 803.11 693.469L802.759 693.03L801.321 693.872C796.884 689.496 793.302 677.974 790.687 672.108C789.377 669.171 787.753 668.471 786.367 664.403Z"/><path fill="#1A4F99" d="M708.028 629.663C711.504 628.983 712.379 628.217 715.169 629.767C716.21 634.787 725.566 645.013 726.573 652.769L724.889 653.156C725.585 654.992 727.396 653.389 728.872 656.761C729.317 657.694 731.175 660.947 731.255 661.85C731.672 666.55 731.645 665.874 734.498 669.434C734.569 670.97 734.698 670.226 733.917 671.704L735.25 673.143C740.435 678.64 753.138 731.668 754.903 741.995C755.876 747.688 761.036 767.501 757.106 771.953C755.136 772.738 754.988 772.701 752.824 772.758C752.146 763.026 750.689 760.16 748.257 750.9C746.853 745.557 745.822 739.584 744.414 734.239C743.473 730.668 741.85 727.529 741.004 723.763L742.073 722.912C741.526 721.532 730.511 686.174 730.5 686.992L731.963 685.615C730.801 685.36 730.801 685.42 729.817 684.782C727.517 678.209 725.436 672.674 722.88 666.387C719.407 657.842 709.431 637.783 708.028 629.663Z"/><path fill="#888CC5" d="M790.99 643.705C795.124 644.487 797.352 644.509 800.567 647.175C797.801 649.186 798.383 648.339 795.032 648.996C793.107 649.356 793.024 649.854 790.852 649.911L790.683 649.289L790.947 649.016L790.808 648.359C789.367 648.337 789.355 648.315 787.958 647.924L788.113 647.104C789.412 645.786 789.882 645.198 790.99 643.705Z"/><path fill="#888CC5" d="M911.62 740.615C909.24 738.321 906.96 737.379 908.728 734.286C910.954 737.429 916.496 743.585 916.421 746.399C914.724 745.884 914.122 746.085 912.322 745.519C911.36 743.896 911.671 742.711 911.62 740.615Z"/><path fill="#D8A3D2" d="M800.567 647.175L800.919 648.5C799.169 650.055 799.959 649.744 797.79 650.192C796.56 649.844 795.996 649.814 795.032 648.996C798.383 648.339 797.801 649.186 800.567 647.175Z"/><path fill="#9EAF41" d="M551.881 232.578C558.276 219.934 567.081 208.663 574.018 196.264C581.885 182.202 589.128 167.284 598.562 154.048C601.655 149.709 612.166 142.318 616.929 139.444C616.147 139.915 618.619 140.161 618.985 140.126L619.629 138.847C622.377 137.305 638.783 138.153 642.614 139.177C646.805 140.297 651.029 142.552 655.707 142.465C656.295 141.475 655.935 141.938 656.808 141.089C657.265 141.938 657.377 142.117 657.898 142.889C659.559 142.847 658.731 143.012 660.373 141.976L662.56 142.245C666.728 144.118 675.831 144.188 680.921 146.154C687.97 148.877 694.821 156.164 700.842 159.046L701.139 160.038C697.602 164.615 703.596 171.311 704.66 176.017C707.673 189.342 712.71 203.323 712.498 217.064C712.372 225.245 713.269 231.021 714.241 238.984L713.542 239.859C715.085 244 714.584 250.926 715.871 255.195C716.288 256.577 721.007 259.98 721.17 263.184L720.419 264.048L719.187 264.835L717.093 264.257L716.67 264.543L714.033 265.2L713.556 266.035C714.527 269.588 718.999 278.155 721.074 281.272C727.119 285.448 730.58 289.418 735.322 295.061C738.386 298.707 742.211 302.133 747.138 302.831C750.594 303.321 754.646 300.491 755.566 304.012C753.668 309.733 744.073 310.589 739.408 311.568C737.972 313.95 738.353 313.585 736.124 314.816C732.425 316.86 729.904 320.226 726.301 322.697C722.09 344.07 719.569 367.517 715.973 389.139C714.85 395.891 712.348 403.44 710.944 410.331C709.675 411.405 709.071 411.562 708.919 413.331C708.898 413.578 708.917 413.827 708.911 414.076C708.819 417.526 708.197 421.92 707.289 425.255C703.568 438.919 685.104 489.55 675.903 498.04C666.494 506.722 657.619 510.772 645.484 514.228C641.31 515.417 637.154 516.76 632.758 516.58C631.924 516.545 631.091 516.481 630.261 516.389C629.017 516.212 627.985 516.286 626.758 516.182C595.745 513.546 562.887 501.398 535.566 487.08C517.996 477.872 501.197 457.329 490.906 440.556C488.509 436.579 486.3 432.492 484.287 428.308C482.437 424.375 476.814 409.56 474.369 407.298C474.314 407.201 473.397 403.625 473.124 403.48C468.959 401.402 462.915 403.72 458.023 403.217C439.359 401.298 427.019 389.718 413.263 378.707L412.303 379.188L411.733 378.618L412.585 377.876C411.114 375.21 406.845 370.335 404.744 367.787C405.562 363.617 403.104 365.575 402.274 363.226C399.97 356.34 398.405 349.103 397.154 341.951C396.029 335.52 398.589 328.986 397.982 322.119C397.117 311.005 405.391 298.808 414.109 292.652C428.036 282.818 442.189 290.842 449.907 303.7C458.336 306.973 467.756 320.605 478.117 313.491C486.917 307.45 498.617 299.892 505.327 291.589C511.514 283.934 518.829 277.351 524.963 269.906C530.109 263.66 533.956 255.941 540.055 250.219C541.586 244.153 549.001 239.097 551.881 232.578Z"/><path fill="#114707" d="M672.061 306.723C672.399 306.112 672.186 306.445 672.837 305.663L673.391 305.005C673.448 301.61 674.851 295.132 676.606 292.26C677.979 292.02 677.515 292.243 678.629 291.483C678.688 289.914 678.635 289.918 679.151 288.458C681.66 285.645 692.367 280.21 696.219 278.52C697.443 277.982 696.686 279.743 699.15 279.536C704.464 273.191 715.329 277.69 721.074 281.272C727.119 285.448 730.58 289.418 735.322 295.061C738.386 298.707 742.211 302.133 747.138 302.831C750.594 303.321 754.646 300.491 755.566 304.012C753.668 309.733 744.073 310.589 739.408 311.568C737.972 313.95 738.353 313.585 736.124 314.816C732.425 316.86 729.904 320.226 726.301 322.697C719.372 325.988 710.14 330.331 702.289 329.707L701.261 329.081C700.678 328.282 700.897 328.557 699.988 328.014C695.803 331.061 686.715 328.563 682.838 325.453C679.744 325.531 677.087 323.604 675.729 320.905L675.586 314.545L674.073 314.468L671.497 315.096C671.1 311.841 670.967 309.82 672.061 306.723Z"/><path fill="#FDFEFD" d="M703.674 296.103C720.299 291.16 717.965 297.162 729.589 306.853C730.694 307.774 737.587 310.761 739.408 311.568C737.972 313.95 738.353 313.585 736.124 314.816C732.425 316.86 729.904 320.226 726.301 322.697C719.372 325.988 710.14 330.331 702.289 329.707L701.261 329.081C704.015 325.595 707.788 324.516 710.235 319.382C715.664 307.989 714.5 301.955 703.674 296.103Z"/><path fill="#FDFEFD" d="M675.586 314.545C677.552 312.493 677.887 311.997 678.666 309.265C680.875 307.218 683.057 306.682 684.821 304.215C685.799 302.848 687.991 301.344 689.67 300.869L690.306 301.386C689.833 303.881 685.282 306.98 685.272 309.897L686.381 310.796L685.953 311.293L684.767 310.584C682.56 315.606 680.427 320.133 682.838 325.453C679.744 325.531 677.087 323.604 675.729 320.905L675.586 314.545Z"/><path fill="#FEE7C9" d="M672.061 306.723C674.527 306.618 674.013 306.257 675.632 307.404C676.613 309.817 674.364 312.61 674.073 314.468L671.497 315.096C671.1 311.841 670.967 309.82 672.061 306.723Z"/><path fill="#EF4983" d="M397.982 322.119C397.117 311.005 405.391 298.808 414.109 292.652C428.036 282.818 442.189 290.842 449.907 303.7C453.701 317.495 454.728 322.212 455.573 336.208C459.235 340.605 459.222 345.409 461.28 351.322C445.853 340.47 432.222 335.915 414.888 328.872C410.095 326.924 402.301 324.303 397.982 322.119Z"/><path fill="#114707" d="M551.881 232.578C558.546 230.821 594.64 233.555 602.746 235.793C607.645 237.145 619.093 242.906 624.381 245.197C626.217 245.993 628.76 248.863 629.161 251.027C629.723 254.06 628.672 260.018 627.954 263.148C618.416 273.269 617.401 269.836 604.966 266.253C601.005 265.111 593.675 262.405 589.827 261.857C575.989 259.885 562.646 256.567 549.006 253.637C546.425 253.082 544.465 252.126 541.768 251.995C540.827 251.216 540.754 251.203 540.055 250.219C541.586 244.153 549.001 239.097 551.881 232.578Z"/><path fill="#114707" d="M716.67 264.543C699.62 263.328 686.204 268.324 671.292 268.715C669.188 266.914 666.57 263.034 667.103 260.138C669.435 257.515 668.654 253.402 673.705 248.326C682.048 239.942 692.943 239.501 704.088 238.826C706.201 238.698 707.897 237.612 711.957 237.498C713.449 238.414 712.795 237.789 713.542 239.859C715.085 244 714.584 250.926 715.871 255.195C716.288 256.577 721.007 259.98 721.17 263.184L720.419 264.048L719.187 264.835L717.093 264.257L716.67 264.543Z"/><path fill="#FCF4D9" d="M674.073 314.468L675.586 314.545L675.729 320.905L674.554 320.679C672.92 318.998 672.417 317.274 671.497 315.096L674.073 314.468Z"/><path fill="#EF4983" d="M648.654 254.852C654.045 262.419 654.451 270.407 656.392 279.253C660.671 298.75 663.326 318.594 668.058 338.009C671.248 351.395 674.945 360.234 680.088 372.889C679.023 374.206 677.904 375.938 676.527 376.689L674.628 382.03C672.618 383.863 670.954 384.965 668.554 386.186C660.203 390.436 653.314 396.587 645.644 401.839C639.732 399.146 619.182 390.827 619.137 383.955C621.198 378.93 631.388 378.805 638.117 375.191L638.766 374.839C635.432 361.716 634.857 352.196 635.16 338.698C635.69 315.131 636.913 292.25 641.82 269.102C642.54 265.708 642.221 264.798 643.996 261.424C646.279 259.009 646.953 257.7 648.654 254.852Z"/><defs><linearGradient id="gradient_0" gradientUnits="userSpaceOnUse" x1="648.70166" y1="320.32394" x2="668.50055" y2="313.76089"><stop offset="0" stop-color="#FAB360"/><stop offset="1" stop-color="#FFA06F"/></linearGradient></defs><path fill="url(#gradient_0)" d="M648.654 254.852C654.045 262.419 654.451 270.407 656.392 279.253C660.671 298.75 663.326 318.594 668.058 338.009C671.248 351.395 674.945 360.234 680.088 372.889C679.023 374.206 677.904 375.938 676.527 376.689C674.422 375.465 667.41 374.303 665.829 372.416C664.209 370.482 662.556 361.602 661.96 358.731C660.693 352.624 657.614 345.328 656.456 339.63C654.252 328.624 652.548 317.116 650.757 306.073C648.565 292.566 645.081 280.087 646.017 266.235C646.162 264.085 645.259 263.142 643.996 261.424C646.279 259.009 646.953 257.7 648.654 254.852Z"/><path fill="#114707" d="M514.768 290.536L516.258 287.78C520.906 284.52 524.957 290.899 528.838 288.559C539.223 282.299 551.532 269.667 564.951 270.737C565.866 271.785 565.441 271.498 566.687 272.062C567.427 271.356 568.491 269.764 569.303 269.784C575.202 269.931 582.48 272.647 586.984 276.421C594.226 282.488 600.679 290.147 600.77 300.026C600.811 302.169 600.801 301.618 599.386 303.235C601.366 305.915 602.24 307.372 603.87 310.279C602.755 312.411 601.836 314.254 600.502 316.271C594.692 319.542 573.872 326.47 568.269 323.779L567.807 322.407L567.329 322.266C561.325 324.41 548.297 322.726 546.068 316.168L545.497 316.804C541.84 315.887 534.653 307.011 533.032 303.522C532.776 303.397 525.439 301.639 524.179 301.17C518.168 298.936 516.913 296.048 514.768 290.536Z"/><path fill="#FDFEFD" d="M563.836 289.292C567.526 289.759 573.829 290.442 577.407 291.309C577.947 291.44 580.62 294.795 582.838 295.975L584.253 294.55L584.839 294.861C583.906 296.761 583.863 295.923 584.227 297.535C585.333 298.017 585.498 298.02 586.347 298.239C588.193 298.715 588.92 301.429 591.461 302.93C594.699 300.92 593.412 303.04 595.695 304.08C596.376 302.406 595.805 302.863 597.125 302.279L599.386 303.235C601.366 305.915 602.24 307.372 603.87 310.279C602.755 312.411 601.836 314.254 600.502 316.271C594.692 319.542 573.872 326.47 568.269 323.779L567.807 322.407C577.834 316.752 583.564 303.566 574.506 293.943C572.521 291.835 567.551 290.974 564.452 289.576L563.836 289.292Z"/><path fill="#FDFEFD" d="M546.902 296.539L549.574 298.047C546.742 302.106 544.42 311.534 546.068 316.168L545.497 316.804C541.84 315.887 534.653 307.011 533.032 303.522C537.461 301.439 544.447 300.2 546.902 296.539Z"/><path fill="#FCF4D9" d="M546.902 296.539C550.427 296.372 549.777 294.88 553.222 294.079L553.695 294.305C552.575 295.975 551.396 297.099 549.574 298.047L546.902 296.539Z"/><path fill="#EF4983" d="M578.165 403.566C583.851 403.301 592.615 405.678 598.768 406.316C617.232 408.12 635.732 409.542 654.256 410.582C657.333 410.724 676.639 411.039 677.76 412.104C683.782 417.828 668.814 433.715 665.119 437.681C663.285 439.502 661.69 440.934 659.595 442.467C636.505 459.358 601.366 440.961 585.326 422.3C581.861 418.268 576.396 412.321 576.123 406.737C576.052 405.275 577.242 404.444 578.165 403.566Z"/><path fill="#FDFEFD" d="M588.037 413.525C591.165 413.706 595.597 415.42 599.301 415.73C613.358 416.907 627.344 418.984 641.406 420.165C646.793 420.617 666.245 419.947 669.867 421.229C668.576 423.73 663.817 428.805 661.751 431.198C657.758 434.492 652.985 437.796 647.872 438.629C628.133 441.845 613.194 435.67 597.308 425.231C596.087 420.654 590.492 419.358 588.037 413.525Z"/><path fill="#EF4983" d="M499.175 329.19C503.406 329.549 511.843 329.302 515.233 329.827C525.944 332.03 534.963 335.298 544.523 341.258C547.645 343.204 567.474 357.452 564.149 364.049C564.277 363.796 555.937 372.554 555.068 373.622L545.625 375.779C543.687 376.377 531.069 377.547 528.781 377.312C512.593 375.65 494.858 368.636 485.762 354.464C485.929 352.679 486.207 350.758 486.429 348.966L483.414 344.453C485.935 336.477 490.317 330.509 499.175 329.19Z"/><path fill="#EF4983" d="M447.468 375.592C461.652 374.584 467.915 388.376 454.876 398.344C443.21 396.706 439.999 396.812 439.29 384.082C441.168 379.483 442.992 377.735 447.468 375.592Z"/><path fill="#728424" d="M385.157 143.61C392.617 135.105 403.835 126.36 411.629 117.831C414.33 114.876 418.363 112.88 420.832 109.594C423.882 105.533 432.772 101.955 437.564 99.5799C438.72 99.8511 438.457 99.8118 439.708 99.8694L439.181 98.7446C443.978 96.8924 448.078 94.0495 452.984 91.6738C461.791 87.4081 471.113 83.9332 479.291 78.455C480.867 77.399 490.729 77.7938 491.07 77.5013C495.134 74.0147 493.918 77.0366 497.006 77.1576C497.225 75.2338 497.307 75.0946 498.984 74.4989C505.561 76.0687 512.28 71.9907 518.909 70.5398C524.377 69.343 528.858 72.0287 532.724 68.2669C533.403 67.606 535.888 69.0198 536.609 69.3366C544.054 67.8363 558.807 68.8233 566.271 71.2542C567.815 71.7571 567.854 73.103 570.602 72.2915L570.949 71.0817C573.632 70.1342 577.226 72.4406 580.05 72.7393C585.006 73.2633 611.451 81.9613 610.531 87.6819L609.17 87.5556C608.653 86.5977 608.78 87.117 608.821 85.991L607.886 87.2548C603.889 87.2548 597.338 85.5719 594.44 85.6846C583.275 86.119 571.418 88.554 560.626 91.3796C557.911 92.0904 551.971 94.9707 549.211 96.1104L549.717 97.2565C565.911 93.4472 579.461 89.7056 596.269 93.88C597.479 94.1806 601.599 95.2846 602.725 94.8382C607.959 91.7847 613.381 97.1431 618.934 98.4712C633.816 102.031 647.495 113.378 653.141 127.699C653.932 129.69 655.108 132.045 656.073 134.027L655.654 135.364C656.622 136.251 656.08 135.878 657.568 136.153C662.899 134.318 661.33 129.909 663.47 127.119C675.165 111.875 703.803 112.068 718.929 119.349C719.832 119.775 720.729 120.216 721.617 120.673C721.323 121.685 721.003 122.57 720.882 123.609C716.294 125.377 714.091 122.957 708.797 122.563C689.167 121.101 672.971 127.213 660.373 141.976C658.731 143.012 659.559 142.847 657.898 142.889C657.377 142.117 657.265 141.938 656.808 141.089C655.935 141.938 656.295 141.475 655.707 142.465C651.029 142.552 646.805 140.297 642.614 139.177C638.783 138.153 622.377 137.305 619.629 138.847L618.985 140.126C618.619 140.161 616.147 139.915 616.929 139.444C612.166 142.318 601.655 149.709 598.562 154.048C589.128 167.284 581.885 182.202 574.018 196.264C567.081 208.663 558.276 219.934 551.881 232.578C549.001 239.097 541.586 244.153 540.055 250.219C533.956 255.941 530.109 263.66 524.963 269.906C518.829 277.351 511.514 283.934 505.327 291.589C498.617 299.892 486.917 307.45 478.117 313.491C467.756 320.605 458.336 306.973 449.907 303.7C442.189 290.842 428.036 282.818 414.109 292.652C405.391 298.808 397.117 311.005 397.982 322.119C398.589 328.986 396.029 335.52 397.154 341.951C398.405 349.103 399.97 356.34 402.274 363.226C403.104 365.575 405.562 363.617 404.744 367.787C406.845 370.335 411.114 375.21 412.585 377.876L411.733 378.618L412.303 379.188L413.263 378.707C427.019 389.718 439.359 401.298 458.023 403.217C462.915 403.72 468.959 401.402 473.124 403.48C473.397 403.625 474.314 407.201 474.369 407.298C473.745 409.595 475.325 417.347 475.696 420.708C476.483 427.834 475.486 448.294 477.086 453.571C475.271 456.541 476.632 457.714 476.531 460.928C476.367 466.122 475.55 471.266 475.73 476.488C475.737 476.665 475.032 476.506 474.465 477.464L476.235 478.586C477.108 485.131 475.686 495.861 476.331 500.541C479.2 521.35 483.86 542.569 489.678 562.697C489.242 562.826 488.806 562.955 488.37 563.085L488.718 563.779L490.253 564.164C487.715 570.651 470.541 562.278 465.488 567.732C462.927 562.799 459.782 556.464 458.281 551.15C456.022 543.149 453.995 530.249 451.08 522.57C450.031 530.966 449.237 540.761 448.589 549.238C447.867 558.666 453.26 558.96 444.852 568.243C436.355 567.624 424.872 567.702 416.416 569.001C411.039 568.232 385.994 569.344 382.188 565.013C379.024 561.413 374.24 546.034 372.13 540.952C370.781 537.705 368.833 522.539 365.001 522.608C364.11 524.764 364.288 527.688 363.841 529.979C361.776 540.561 361.78 550.976 361.625 561.69C361.609 562.835 357.646 567.083 356.667 568.326C354.09 567.337 348.077 564.917 345.71 564.412C339.11 563.003 331.142 563.758 325.059 560.372C316.917 555.84 320.802 554.76 319.576 550.487C314.081 547.133 316.687 544.013 316.371 538.285C314.665 507.367 325.294 481.218 337.12 453.443C346.007 432.568 351.647 402.793 348.568 380.292C348.035 376.394 350.193 370.636 347.729 366.786L346.936 365.311C347.411 361.311 344.727 349.655 343.654 345.208C343.548 344.537 341.94 339.154 342.031 338.922C344.415 332.804 338.48 331.498 341.651 325.072L341.961 324.455C340.283 322.788 340.188 322.627 339.879 320.322C339.195 315.218 340.562 310.182 340.543 305.188C340.526 300.508 339.123 295.488 338.776 290.83C338.653 289.155 339.916 285.061 339.879 283.349C339.82 280.62 338.371 279.055 338.479 276.133L339.821 275.503C340.084 271.987 338.457 268.737 338.56 265.16C338.697 260.402 341.266 255.955 341.725 251.433C341.027 250.383 340.57 249.973 340.503 248.74C340.956 249.176 341.394 249.575 341.858 249.997L342.696 249.63L343.742 243.462C337.895 237.889 344.062 232.197 345.725 226.513L344.709 225.224C344.304 221.638 347.285 220.767 349.28 217.538C348.84 216.381 348.38 215.231 347.901 214.088C347.877 212.316 350.22 209.76 351.243 207.876C350.79 193.442 352.302 196.97 359.211 186.309C358.371 185.957 358.739 186.224 358.13 185.476C359.75 181.459 364.484 180.618 365.301 173.679C365.68 170.45 382.085 146.408 384.224 145.34L385.661 146.093L385.93 145.518L385.157 143.61Z"/><path fill="#C0A961" d="M549.211 96.1104L549.717 97.2565C548.229 97.6995 545.914 98.5696 544.503 98.3789L544.295 97.1502L543.563 97.117L543.848 98.7218L542.39 98.9553L541.77 98.3794L542.119 97.276C545.279 95.1099 543.998 97.8711 549.211 96.1104Z"/><path fill="#FEA79E" d="M458.359 169.058L458.552 169.202L458.624 169.997C457.838 171.074 457.262 171.715 456.84 173.053C450.974 191.681 431.451 226.848 414.403 235.401L413.762 235.717C413.414 238.351 409.68 241.366 407.023 241.45C407.422 242.383 407.286 241.896 407.428 242.91C404.532 243.395 398.265 248.054 397.615 250.955C393.762 253.607 392.57 256.117 389.422 259.759C388.132 254.877 394.014 249.934 394.054 246.4C394.116 240.984 396.993 239.979 399.256 235.053C400.842 231.602 401.632 227.851 403.553 224.458L405.224 224.066C406.433 222.576 405.771 222.061 406.269 220.615C407.996 215.6 412.518 211.786 415.476 207.362C417.57 202.244 426.758 197.287 429.153 193.84C433.913 186.986 433.766 190.832 437.852 187.309C444.24 181.8 451.156 173.479 458.359 169.058Z"/><defs><linearGradient id="gradient_1" gradientUnits="userSpaceOnUse" x1="478.69778" y1="201.68246" x2="494.68008" y2="221.22514"><stop offset="0" stop-color="#FFB67C"/><stop offset="1" stop-color="#FFA49C"/></linearGradient></defs><path fill="url(#gradient_1)" d="M437.313 261.484C438.713 259.509 453.209 247.021 456.224 243.961C471.215 228.749 485.106 213.055 498.376 196.293C502.798 190.681 508.847 185.598 512.49 179.453C514.73 175.674 519.633 175.754 519.94 171.736C520.176 168.653 524.495 166.545 526.391 164.33C528.449 161.926 529.714 159.79 532.193 157.929L533.152 157.838C533.445 160.933 522.486 172.303 522.221 177.404C522.217 177.483 515.873 188.17 514.955 189.506C504.497 204.731 493.985 221.634 480.305 234.146C474.739 239.236 467.882 244.599 461.969 249.019C460.999 248.334 461.516 248.447 460.463 248.368C459.083 249.794 457.22 252.162 455.908 253.219C452.442 256.013 442.148 260.209 439.293 262.667L437.313 261.484Z"/><path fill="#FEA79E" d="M373.085 246.438C372.581 241.975 373.817 240.101 373.782 235.781C373.4 235.427 373.018 235.072 372.636 234.718C374.339 226.518 381.354 197.104 385.393 191.912C392.502 182.772 400.163 179.531 408.307 172.488C412.588 168.786 414.484 165.677 418.326 162.387C420.032 160.926 425.839 158.155 427.987 156.776C428.347 156.545 428.79 154.622 428.873 154.22C430.385 153.394 429.586 153.619 431.388 153.625C430.103 157.021 428.145 159.155 425.939 162.066C410.08 182.996 393.83 204.262 383.29 228.566C380.343 235.361 378.543 241.821 375.981 248.384C374.451 247.62 374.413 247.652 373.085 246.438Z"/><path fill="#FEB982" d="M431.755 428.196C435.578 430.431 435.088 448.553 437.975 453.599C438.31 454.185 440.106 466.445 439.687 467.176C437.618 470.784 436.517 479.041 435.482 483.719C434.367 488.214 423.634 506.202 420.261 507.759C418.516 509.91 417.023 511.44 415.107 513.401C423.348 494.124 423.128 472.215 427.568 451.772C428.833 445.949 431.458 433.613 431.755 428.196Z"/><path fill="#FEB982" d="M385.02 422.794L387.063 422.454C386.983 424.566 387.581 426.919 387.537 429.814C387.442 436.116 386.859 442.146 386.177 448.328C383.776 470.081 374.4 481.758 359.493 497.009C354.439 502.18 353.238 505.49 346.486 510.933C351.81 501.892 356.009 491.805 361.442 482.176C361.21 481.482 360.927 480.865 360.559 480.233C370.339 465.292 377.994 446.679 383.732 429.905C384.552 427.509 383.318 424.912 385.02 422.794Z"/><path fill="#FEB982" d="M417.707 425.288C417.819 425.39 417.97 425.461 418.043 425.594C418.629 426.661 411.212 468.22 410.465 471.966C409.948 474.563 409.319 477.335 408.245 479.761C406.423 483.875 397.676 504.969 394.746 506.615L394.007 505.918C395.138 502.094 395.015 497.926 395.741 494.78C397.298 488.023 398.328 477.904 399.747 471.728C400.777 467.245 407.383 453.486 409.808 449.503L409.123 448.03C412.055 441.013 414.936 430.767 417.707 425.288Z"/><path fill="#FEB982" d="M373.085 246.438C374.413 247.652 374.451 247.62 375.981 248.384L375.616 249.096C375.693 250.393 371.876 266.663 371.348 268.411C370.22 261.883 371.219 252.742 373.085 246.438Z"/><path fill="#FEB982" d="M433.906 264.74C435.084 262.101 435.008 262.514 437.313 261.484L439.293 262.667C438.082 263.432 435.47 265.202 434.277 265.663L433.906 264.74Z"/><path fill="#FEBE70" d="M385.02 422.794C385.181 420.575 384.968 419.601 386.398 417.972C387.306 418.973 387.016 420.772 387.063 422.454L385.02 422.794Z"/><path fill="#7D8220" d="M434.277 265.663C432.831 266.61 430.439 268.432 428.85 268.334C429.937 266.755 432.176 265.736 433.906 264.74L434.277 265.663Z"/><path fill="#FEBE70" d="M570.949 71.0817L570.907 70.3083C572.947 69.9032 574.319 70.201 576.366 70.0819C594.185 69.1021 611.829 74.0213 626.571 84.0785C630.985 87.036 635.219 91.0618 639.491 93.8616C644.72 92.7825 650.661 90.7951 655.656 90.0938C674.98 87.4198 697.508 88.099 714.2 99.5447C742.732 119.109 762.131 144.911 768.341 179.344C773.189 206.226 774.36 236.38 769.643 263.396C758.622 326.506 755.396 388.379 782.728 448.031C797.667 480.644 818.201 510.426 806.213 548.198C803.59 556.576 802.753 564.899 794.496 569.882C791.679 570.105 762.535 570.632 761.072 570.319C758.942 570.906 720.011 571.943 717.341 571.474L716.873 571C719.609 564.498 722.805 557.692 724.229 550.76C724.804 547.964 725.327 545.305 726.031 542.534C725.19 543.37 720.84 550.847 719.832 552.458C714.185 561.492 710.733 564.862 703.103 572.004L658.172 571.296C654.172 571.233 650.155 571.487 646.044 571.427C641.793 571.364 638.583 570.599 634.825 570.382C631.352 569.629 628.121 559.224 621.241 557.917C621.241 557.913 624.657 541.758 624.63 541.804C627.911 536.266 626.75 523.658 628.447 519.923L630.571 519.272L630.261 516.389C631.091 516.481 631.924 516.545 632.758 516.58C637.154 516.76 641.31 515.417 645.484 514.228C657.619 510.772 666.494 506.722 675.903 498.04C685.104 489.55 703.568 438.919 707.289 425.255C708.197 421.92 708.819 417.526 708.911 414.076C708.917 413.827 708.898 413.578 708.919 413.331C709.071 411.562 709.675 411.405 710.944 410.331C712.348 403.44 714.85 395.891 715.973 389.139C719.569 367.517 722.09 344.07 726.301 322.697C729.904 320.226 732.425 316.86 736.124 314.816C738.353 313.585 737.972 313.95 739.408 311.568C744.073 310.589 753.668 309.733 755.566 304.012C754.646 300.491 750.594 303.321 747.138 302.831C742.211 302.133 738.386 298.707 735.322 295.061C730.58 289.418 727.119 285.448 721.074 281.272C718.999 278.155 714.527 269.588 713.556 266.035L714.033 265.2L716.67 264.543L717.093 264.257L719.187 264.835L720.419 264.048L721.17 263.184C721.007 259.98 716.288 256.577 715.871 255.195C714.584 250.926 715.085 244 713.542 239.859L714.241 238.984C713.269 231.021 712.372 225.245 712.498 217.064C712.71 203.323 707.673 189.342 704.66 176.017C703.596 171.311 697.602 164.615 701.139 160.038L700.842 159.046C694.821 156.164 687.97 148.877 680.921 146.154C675.831 144.188 666.728 144.118 662.56 142.245L660.373 141.976C672.971 127.213 689.167 121.101 708.797 122.563C714.091 122.957 716.294 125.377 720.882 123.609C721.003 122.57 721.323 121.685 721.617 120.673C720.729 120.216 719.832 119.775 718.929 119.349C703.803 112.068 675.165 111.875 663.47 127.119C661.33 129.909 662.899 134.318 657.568 136.153C656.08 135.878 656.622 136.251 655.654 135.364L656.073 134.027C655.108 132.045 653.932 129.69 653.141 127.699C647.495 113.378 633.816 102.031 618.934 98.4712C613.381 97.1431 607.959 91.7847 602.725 94.8382C601.599 95.2846 597.479 94.1806 596.269 93.88C579.461 89.7056 565.911 93.4472 549.717 97.2565L549.211 96.1104C551.971 94.9707 557.911 92.0904 560.626 91.3796C571.418 88.554 583.275 86.119 594.44 85.6846C597.338 85.5719 603.889 87.2548 607.886 87.2548L608.821 85.991C608.78 87.117 608.653 86.5977 609.17 87.5556L610.531 87.6819C611.451 81.9613 585.006 73.2633 580.05 72.7393C577.226 72.4406 573.632 70.1342 570.949 71.0817Z"/><path fill="#728424" d="M630.571 519.272C633.502 518.905 636.032 519.07 638.921 518.807C661.647 516.743 678.71 516.615 696.309 499.856C696.814 499.376 696.72 499.502 697.476 499.184L698.442 499.869C708.405 489.658 709.081 487.63 714.353 474.858C720.534 460.051 725.521 444.773 729.265 429.17C731.875 418.685 733.453 408.593 737.344 398.39C738.595 395.111 737.556 387.992 740.357 385.073C741.295 385.802 743.219 392.255 743.405 393.721C744.474 402.188 745.604 410.656 747.187 419.048C749.255 430.624 753.558 441.252 756.374 452.617C756.909 454.776 760.485 462.517 761.523 465.015C763.04 468.665 764.699 474.473 766.14 477.615C769.084 484.035 772.173 485.038 772.144 493.127C772.13 496.876 777.747 503.219 776.475 507.504C776.061 508.902 777.451 514.552 777.573 516.538C777.899 521.833 778.074 528.772 777.372 533.984C776.749 538.656 775.455 543.213 773.53 547.514C772.72 549.365 771.385 551.956 770.361 553.801C770.518 554.277 770.675 554.754 770.832 555.23C768.153 559.689 765.737 565.434 762.488 569.37C762.207 569.711 760.505 570.658 761.072 570.319C758.942 570.906 720.011 571.943 717.341 571.474L716.873 571C719.609 564.498 722.805 557.692 724.229 550.76C724.804 547.964 725.327 545.305 726.031 542.534C725.19 543.37 720.84 550.847 719.832 552.458C714.185 561.492 710.733 564.862 703.103 572.004L658.172 571.296C654.172 571.233 650.155 571.487 646.044 571.427C641.793 571.364 638.583 570.599 634.825 570.382C631.352 569.629 628.121 559.224 621.241 557.917C621.241 557.913 624.657 541.758 624.63 541.804C627.911 536.266 626.75 523.658 628.447 519.923L630.571 519.272Z"/><path fill="#FEB982" d="M740.622 470.962C744.932 475.538 747.706 487.88 749.563 494.134C750.571 497.526 749.164 502.174 751.645 505.138C750.879 510.529 745.973 527.056 743.123 531.818L742.336 532.184C741.02 530.085 743.421 501.006 741.938 496.752C740.301 492.053 743.23 485.038 742.585 483.735C740.217 478.954 740.868 477.405 740.622 470.962Z"/><path fill="#FEB982" d="M727.488 484.687C729.66 488.514 730.183 504.321 726.557 507.264C726.491 514.173 725.48 513.507 722.142 519.16C719.561 523.53 716.424 528.4 714.199 532.938L713.903 533.553L713.357 532.917C713.541 532.282 714.766 530.471 714.845 529.975C715.296 527.155 714.311 529.262 713.368 527.394C713.665 527.057 717.102 523.127 717.149 522.973C718.415 518.732 719.723 512.251 720.86 508.008C721.397 506.002 719.892 505.074 721.639 501.485C724.201 496.223 725.39 489.988 727.488 484.687Z"/><path fill="#728424" d="M662.56 142.245C675.072 136.463 689.472 134.711 702.836 139.268C706.572 140.543 717.182 145.339 719.768 148.151C719.371 148.73 719.074 149.181 718.811 149.838L719.413 150.473C720.492 149.817 720.021 150.106 720.728 148.663C728.367 150.973 744.256 173.455 745.314 182.22C745.333 182.383 745.148 183.492 745.132 183.619L745.416 184.172C754.102 201.476 753.473 236.113 750.647 255.046C748.297 251.296 741.422 243.221 740.517 241.118C739.998 241.887 739.947 241.856 739.266 242.506C735.542 241.945 736.199 241.368 733.01 239.599C732.521 239.846 732.032 240.093 731.543 240.34C726.358 238.812 719.676 237.292 714.241 238.984C713.269 231.021 712.372 225.245 712.498 217.064C712.71 203.323 707.673 189.342 704.66 176.017C703.596 171.311 697.602 164.615 701.139 160.038L700.842 159.046C694.821 156.164 687.97 148.877 680.921 146.154C675.831 144.188 666.728 144.118 662.56 142.245Z"/><path fill="#FEBE70" d="M701.139 160.038C707.305 167.918 714.471 173.219 720.311 180.932C723.547 185.207 721.324 185.951 727.256 188.003C728.379 189.535 726.87 192.853 727.494 193.773C735.92 206.181 739.547 221.206 740.267 236.047C740.32 237.139 740.589 240.127 740.517 241.118C739.998 241.887 739.947 241.856 739.266 242.506C735.542 241.945 736.199 241.368 733.01 239.599C732.521 239.846 732.032 240.093 731.543 240.34C726.358 238.812 719.676 237.292 714.241 238.984C713.269 231.021 712.372 225.245 712.498 217.064C712.71 203.323 707.673 189.342 704.66 176.017C703.596 171.311 697.602 164.615 701.139 160.038Z"/><path fill="#5A751A" d="M714.241 238.984C719.676 237.292 726.358 238.812 731.543 240.34C732.032 240.093 732.521 239.846 733.01 239.599C736.199 241.368 735.542 241.945 739.266 242.506C739.947 241.856 739.998 241.887 740.517 241.118C741.422 243.221 748.297 251.296 750.647 255.046L750.296 256.507L748.86 256.859C748.488 258.131 748.783 258.086 749.184 259.258C750.498 263.092 747.585 267.752 747.063 271.686C746.766 273.926 747.067 277.377 746.247 279.136C744.848 277.936 745.307 278.218 744.638 276.726C743.179 273.474 737.75 269.663 734.639 268.143C731.076 266.402 722.397 267.042 720.419 264.048L721.17 263.184C721.007 259.98 716.288 256.577 715.871 255.195C714.584 250.926 715.085 244 713.542 239.859L714.241 238.984Z"/><path fill="#7D8220" d="M721.617 120.673C723.877 122.054 727.486 124.199 728.887 126.404L728.839 127.254C726.254 127.919 722.441 125.616 720.882 123.609C721.003 122.57 721.323 121.685 721.617 120.673Z"/><path fill="#7D8220" d="M610.919 85.7635C614.939 87.1067 616.55 87.4453 620.168 89.6496C616.657 90.6122 612.576 89.1094 610.919 85.7635Z"/></svg>